G75*
G70*
%OFA0B0*%
%FSLAX24Y24*%
%IPPOS*%
%LPD*%
%AMOC8*
5,1,8,0,0,1.08239X$1,22.5*
%
%ADD10C,0.1340*%
%ADD11C,0.0860*%
%ADD12C,0.0740*%
%ADD13C,0.1380*%
%ADD14C,0.0600*%
%ADD15C,0.0820*%
%ADD16C,0.1080*%
%ADD17OC8,0.1080*%
%ADD18R,0.0595X0.0595*%
%ADD19C,0.0595*%
D10*
X004631Y001080D03*
X004631Y010980D03*
X027631Y010980D03*
X027631Y001080D03*
D11*
X026021Y002620D02*
X025241Y002620D01*
X025241Y004600D02*
X026021Y004600D01*
X026021Y006560D02*
X025241Y006560D01*
X025241Y008540D02*
X026021Y008540D01*
X006921Y008540D02*
X006141Y008540D01*
X006141Y006560D02*
X006921Y006560D01*
X006921Y004600D02*
X006141Y004600D01*
X006141Y002620D02*
X006921Y002620D01*
D12*
X020401Y002380D02*
X021061Y002380D01*
X021061Y003380D02*
X020401Y003380D01*
X020401Y004380D02*
X021061Y004380D01*
D13*
X013831Y003380D03*
D14*
X017131Y006060D02*
X017131Y006580D01*
X018131Y006580D02*
X018131Y006060D01*
X019131Y006060D02*
X019131Y006580D01*
X019131Y009580D02*
X019131Y010100D01*
X018131Y010100D02*
X018131Y009580D01*
X017131Y009580D02*
X017131Y010100D01*
D15*
X020631Y009380D03*
X020631Y006380D03*
X012431Y009380D03*
X011431Y009380D03*
X010231Y009380D03*
X009031Y009380D03*
X009031Y006380D03*
X010231Y006380D03*
X010231Y004880D03*
X009031Y004880D03*
X009031Y001880D03*
X010231Y001880D03*
D16*
X011631Y001380D03*
X011631Y007380D03*
D17*
X022731Y008530D03*
X022731Y002630D03*
D18*
X014331Y006580D03*
D19*
X015331Y006580D03*
X015331Y009580D03*
X014331Y009580D03*
M02*
