G75*
G70*
%OFA0B0*%
%FSLAX24Y24*%
%IPPOS*%
%LPD*%
%AMOC8*
5,1,8,0,0,1.08239X$1,22.5*
%
%ADD10C,0.0780*%
%ADD11C,0.0660*%
%ADD12C,0.0520*%
%ADD13C,0.0740*%
%ADD14C,0.1000*%
%ADD15OC8,0.1000*%
%ADD16R,0.0515X0.0515*%
%ADD17C,0.0515*%
%ADD18C,0.0160*%
%ADD19C,0.0400*%
%ADD20C,0.0240*%
%ADD21C,0.0560*%
%ADD22C,0.0500*%
D10*
X006141Y002620D02*
X006921Y002620D01*
X006921Y004600D02*
X006141Y004600D01*
X006141Y006560D02*
X006921Y006560D01*
X006921Y008540D02*
X006141Y008540D01*
X025241Y008540D02*
X026021Y008540D01*
X026021Y006560D02*
X025241Y006560D01*
X025241Y004600D02*
X026021Y004600D01*
X026021Y002620D02*
X025241Y002620D01*
D11*
X021061Y002380D02*
X020401Y002380D01*
X020401Y003380D02*
X021061Y003380D01*
X021061Y004380D02*
X020401Y004380D01*
D12*
X019131Y006060D02*
X019131Y006580D01*
X018131Y006580D02*
X018131Y006060D01*
X017131Y006060D02*
X017131Y006580D01*
X017131Y009580D02*
X017131Y010100D01*
X018131Y010100D02*
X018131Y009580D01*
X019131Y009580D02*
X019131Y010100D01*
D13*
X020631Y009380D03*
X020631Y006380D03*
X012431Y009380D03*
X011431Y009380D03*
X010231Y009380D03*
X009031Y009380D03*
X009031Y006380D03*
X010231Y006380D03*
X010231Y004880D03*
X009031Y004880D03*
X009031Y001880D03*
X010231Y001880D03*
D14*
X011631Y001380D03*
X011631Y007380D03*
D15*
X022731Y008530D03*
X022731Y002630D03*
D16*
X014331Y006580D03*
D17*
X015331Y006580D03*
X015331Y009580D03*
X014331Y009580D03*
D18*
X004211Y002747D02*
X004211Y002117D01*
X004485Y002190D01*
X004769Y002190D01*
X004211Y002747D01*
X004211Y002716D02*
X004242Y002716D01*
X004211Y002558D02*
X004401Y002558D01*
X004559Y002399D02*
X004211Y002399D01*
X004211Y002241D02*
X004718Y002241D01*
X005306Y002558D02*
X005574Y002558D01*
X005572Y002570D02*
X005585Y002487D01*
X005613Y002401D01*
X005653Y002321D01*
X005706Y002249D01*
X005770Y002185D01*
X005842Y002132D01*
X005922Y002092D01*
X006007Y002064D01*
X006096Y002050D01*
X006481Y002050D01*
X006481Y002570D01*
X006581Y002570D01*
X006581Y002670D01*
X007490Y002670D01*
X007477Y002753D01*
X007449Y002839D01*
X007408Y002919D01*
X007356Y002991D01*
X007292Y003055D01*
X007220Y003108D01*
X007140Y003148D01*
X007054Y003176D01*
X006966Y003190D01*
X006581Y003190D01*
X006581Y002670D01*
X006481Y002670D01*
X006481Y003190D01*
X006096Y003190D01*
X006007Y003176D01*
X005922Y003148D01*
X005842Y003108D01*
X005770Y003055D01*
X005706Y002991D01*
X005653Y002919D01*
X005613Y002839D01*
X005585Y002753D01*
X005572Y002670D01*
X006481Y002670D01*
X006481Y002570D01*
X005572Y002570D01*
X005431Y002580D02*
X006491Y002580D01*
X006481Y002558D02*
X006581Y002558D01*
X006581Y002570D02*
X006581Y002050D01*
X006966Y002050D01*
X007054Y002064D01*
X007140Y002092D01*
X007220Y002132D01*
X007292Y002185D01*
X007356Y002249D01*
X007408Y002321D01*
X007449Y002401D01*
X007477Y002487D01*
X007490Y002570D01*
X006581Y002570D01*
X006581Y002716D02*
X006481Y002716D01*
X006481Y002875D02*
X006581Y002875D01*
X006581Y003033D02*
X006481Y003033D01*
X005748Y003033D02*
X004831Y003033D01*
X004751Y003113D02*
X004751Y004020D01*
X004760Y003999D01*
X005250Y003509D01*
X005367Y003460D01*
X007595Y003460D01*
X007712Y003509D01*
X008112Y003909D01*
X008202Y003999D01*
X008251Y004116D01*
X008251Y005147D01*
X008884Y005781D01*
X008910Y005770D01*
X009152Y005770D01*
X009311Y005836D01*
X009311Y005613D01*
X009178Y005479D01*
X009152Y005490D01*
X008910Y005490D01*
X008685Y005397D01*
X008514Y005226D01*
X008421Y005001D01*
X008421Y004759D01*
X008514Y004534D01*
X008685Y004363D01*
X008910Y004270D01*
X009152Y004270D01*
X009377Y004363D01*
X009548Y004534D01*
X009631Y004735D01*
X009714Y004534D01*
X009885Y004363D01*
X010110Y004270D01*
X010352Y004270D01*
X010577Y004363D01*
X010654Y004440D01*
X010849Y004440D01*
X011291Y003998D01*
X011291Y002040D01*
X011212Y002007D01*
X011004Y001799D01*
X010891Y001527D01*
X010891Y001233D01*
X011004Y000961D01*
X011212Y000753D01*
X011435Y000660D01*
X005668Y000660D01*
X005741Y000934D01*
X005741Y001218D01*
X006050Y000909D01*
X006167Y000860D01*
X009795Y000860D01*
X009912Y000909D01*
X010274Y001270D01*
X010352Y001270D01*
X010577Y001363D01*
X010748Y001534D01*
X010841Y001759D01*
X010841Y002001D01*
X010748Y002226D01*
X010577Y002397D01*
X010352Y002490D01*
X010110Y002490D01*
X009885Y002397D01*
X009714Y002226D01*
X009621Y002001D01*
X009621Y001759D01*
X009690Y001592D01*
X009598Y001500D01*
X009429Y001500D01*
X009450Y001522D01*
X009501Y001592D01*
X009541Y001669D01*
X009567Y001751D01*
X009581Y001837D01*
X009581Y001871D01*
X009040Y001871D01*
X009040Y001889D01*
X009022Y001889D01*
X009022Y002430D01*
X008988Y002430D01*
X008902Y002416D01*
X008820Y002390D01*
X008743Y002350D01*
X008673Y002300D01*
X008611Y002238D01*
X008561Y002168D01*
X008521Y002091D01*
X008495Y002009D01*
X008481Y001923D01*
X008481Y001889D01*
X009022Y001889D01*
X009022Y001871D01*
X008481Y001871D01*
X008481Y001837D01*
X008495Y001751D01*
X008521Y001669D01*
X008561Y001592D01*
X008611Y001522D01*
X008633Y001500D01*
X006364Y001500D01*
X004751Y003113D01*
X004751Y003192D02*
X011291Y003192D01*
X011291Y003033D02*
X007314Y003033D01*
X007431Y002875D02*
X011291Y002875D01*
X011291Y002716D02*
X007483Y002716D01*
X007488Y002558D02*
X011291Y002558D01*
X011291Y002399D02*
X010572Y002399D01*
X010733Y002241D02*
X011291Y002241D01*
X011291Y002082D02*
X010808Y002082D01*
X010841Y001924D02*
X011128Y001924D01*
X010989Y001765D02*
X010841Y001765D01*
X010778Y001607D02*
X010924Y001607D01*
X010891Y001448D02*
X010662Y001448D01*
X010891Y001290D02*
X010399Y001290D01*
X010135Y001131D02*
X010933Y001131D01*
X010999Y000973D02*
X009976Y000973D01*
X009731Y001180D02*
X010231Y001680D01*
X010231Y001880D01*
X009654Y002082D02*
X009544Y002082D01*
X009541Y002091D02*
X009501Y002168D01*
X009450Y002238D01*
X009389Y002300D01*
X009319Y002350D01*
X009242Y002390D01*
X009160Y002416D01*
X009074Y002430D01*
X009040Y002430D01*
X009040Y001889D01*
X009581Y001889D01*
X009581Y001923D01*
X009567Y002009D01*
X009541Y002091D01*
X009581Y001924D02*
X009621Y001924D01*
X009621Y001765D02*
X009570Y001765D01*
X009509Y001607D02*
X009684Y001607D01*
X009040Y001924D02*
X009022Y001924D01*
X009022Y002082D02*
X009040Y002082D01*
X009040Y002241D02*
X009022Y002241D01*
X009022Y002399D02*
X009040Y002399D01*
X009213Y002399D02*
X009890Y002399D01*
X009729Y002241D02*
X009448Y002241D01*
X008848Y002399D02*
X007448Y002399D01*
X007348Y002241D02*
X008614Y002241D01*
X008518Y002082D02*
X007110Y002082D01*
X006581Y002082D02*
X006481Y002082D01*
X006481Y002241D02*
X006581Y002241D01*
X006581Y002399D02*
X006481Y002399D01*
X005952Y002082D02*
X005782Y002082D01*
X005714Y002241D02*
X005623Y002241D01*
X005614Y002399D02*
X005465Y002399D01*
X005431Y002580D02*
X004731Y003280D01*
X004731Y008780D01*
X007031Y011080D01*
X015931Y011080D01*
X015431Y010580D01*
X015431Y009980D01*
X015331Y009580D01*
X015768Y009580D01*
X015768Y009614D01*
X015758Y009682D01*
X015736Y009748D01*
X015705Y009809D01*
X015665Y009865D01*
X015616Y009914D01*
X015560Y009954D01*
X015499Y009985D01*
X015433Y010007D01*
X015365Y010017D01*
X015331Y010017D01*
X015331Y009580D01*
X015331Y009580D01*
X015768Y009580D01*
X015768Y009546D01*
X015758Y009478D01*
X015736Y009412D01*
X015705Y009351D01*
X015665Y009295D01*
X015616Y009246D01*
X015560Y009206D01*
X015499Y009175D01*
X015433Y009153D01*
X015365Y009143D01*
X015331Y009143D01*
X015331Y009580D01*
X015331Y009580D01*
X015331Y009580D01*
X015331Y010017D01*
X015297Y010017D01*
X015229Y010007D01*
X015163Y009985D01*
X015102Y009954D01*
X015046Y009914D01*
X014997Y009865D01*
X014957Y009809D01*
X014926Y009748D01*
X014904Y009682D01*
X014893Y009614D01*
X014893Y009580D01*
X015331Y009580D01*
X015331Y009143D01*
X015297Y009143D01*
X015229Y009153D01*
X015163Y009175D01*
X015102Y009206D01*
X015046Y009246D01*
X014997Y009295D01*
X014957Y009351D01*
X014926Y009412D01*
X014904Y009478D01*
X014893Y009546D01*
X014893Y009580D01*
X015331Y009580D01*
X015331Y009580D01*
X015331Y009532D02*
X015331Y009532D01*
X015331Y009690D02*
X015331Y009690D01*
X015331Y009849D02*
X015331Y009849D01*
X015331Y010007D02*
X015331Y010007D01*
X015431Y010007D02*
X016631Y010007D01*
X016631Y009849D02*
X015677Y009849D01*
X015755Y009690D02*
X016631Y009690D01*
X016631Y009532D02*
X015766Y009532D01*
X015717Y009373D02*
X016676Y009373D01*
X016707Y009297D02*
X016848Y009156D01*
X017032Y009080D01*
X017230Y009080D01*
X017414Y009156D01*
X017555Y009297D01*
X017631Y009481D01*
X017631Y010199D01*
X017555Y010383D01*
X017414Y010524D01*
X017230Y010600D01*
X017032Y010600D01*
X016848Y010524D01*
X016707Y010383D01*
X016631Y010199D01*
X016631Y009481D01*
X016707Y009297D01*
X016789Y009215D02*
X015572Y009215D01*
X015331Y009215D02*
X015331Y009215D01*
X015331Y009373D02*
X015331Y009373D01*
X015090Y009215D02*
X014669Y009215D01*
X014613Y009158D02*
X014430Y009083D01*
X014232Y009083D01*
X014049Y009158D01*
X013909Y009298D01*
X013833Y009481D01*
X013833Y009679D01*
X013909Y009862D01*
X014003Y009955D01*
X013498Y010460D01*
X007364Y010460D01*
X006074Y009170D01*
X007046Y009170D01*
X007278Y009074D01*
X007372Y008980D01*
X008009Y008980D01*
X008421Y009392D01*
X008421Y009501D01*
X008514Y009726D01*
X008685Y009897D01*
X008910Y009990D01*
X009152Y009990D01*
X009377Y009897D01*
X009548Y009726D01*
X009631Y009525D01*
X009714Y009726D01*
X009885Y009897D01*
X010110Y009990D01*
X010352Y009990D01*
X010577Y009897D01*
X010654Y009820D01*
X011008Y009820D01*
X011085Y009897D01*
X011310Y009990D01*
X011552Y009990D01*
X011777Y009897D01*
X011931Y009743D01*
X012085Y009897D01*
X012310Y009990D01*
X012552Y009990D01*
X012777Y009897D01*
X012948Y009726D01*
X013041Y009501D01*
X013041Y009259D01*
X012948Y009034D01*
X012777Y008863D01*
X012552Y008770D01*
X012474Y008770D01*
X012144Y008440D01*
X017882Y008440D01*
X018723Y009281D01*
X018707Y009297D01*
X018631Y009481D01*
X018631Y010199D01*
X018707Y010383D01*
X018848Y010524D01*
X019032Y010600D01*
X019230Y010600D01*
X019414Y010524D01*
X019555Y010383D01*
X019631Y010199D01*
X019631Y009481D01*
X019555Y009297D01*
X019491Y009233D01*
X019491Y009108D01*
X019436Y008976D01*
X019335Y008875D01*
X018235Y007775D01*
X018103Y007720D01*
X012291Y007720D01*
X012371Y007527D01*
X012371Y007262D01*
X012613Y007020D01*
X013917Y007020D01*
X013938Y007041D01*
X014026Y007077D01*
X014636Y007077D01*
X014724Y007041D01*
X014792Y006973D01*
X014828Y006885D01*
X014828Y006275D01*
X014792Y006187D01*
X014724Y006119D01*
X014636Y006083D01*
X014026Y006083D01*
X013938Y006119D01*
X013917Y006140D01*
X012343Y006140D01*
X012182Y006207D01*
X011749Y006640D01*
X011484Y006640D01*
X011212Y006753D01*
X011004Y006961D01*
X010891Y007233D01*
X010891Y007527D01*
X010971Y007720D01*
X010680Y007720D01*
X010591Y007631D01*
X010591Y006883D01*
X010748Y006726D01*
X010841Y006501D01*
X010841Y006259D01*
X010748Y006034D01*
X010577Y005863D01*
X010352Y005770D01*
X010110Y005770D01*
X009951Y005836D01*
X009951Y005424D01*
X010110Y005490D01*
X010352Y005490D01*
X010577Y005397D01*
X010654Y005320D01*
X011118Y005320D01*
X011280Y005253D01*
X011980Y004553D01*
X012104Y004429D01*
X012167Y004278D01*
X012319Y004540D01*
X012670Y004892D01*
X013101Y005141D01*
X013582Y005270D01*
X014080Y005270D01*
X014560Y005141D01*
X014991Y004892D01*
X015343Y004540D01*
X015592Y004110D01*
X015721Y003629D01*
X015721Y003131D01*
X015592Y002650D01*
X015343Y002220D01*
X014991Y001868D01*
X014560Y001619D01*
X014080Y001490D01*
X013582Y001490D01*
X013101Y001619D01*
X012670Y001868D01*
X012319Y002220D01*
X012171Y002475D01*
X012171Y001887D01*
X012258Y001799D01*
X012371Y001527D01*
X012371Y001440D01*
X017562Y001440D01*
X017027Y001975D01*
X017027Y001975D01*
X016926Y002076D01*
X016871Y002208D01*
X016871Y003431D01*
X015127Y005175D01*
X015127Y005175D01*
X015026Y005276D01*
X014971Y005408D01*
X014971Y006236D01*
X014909Y006298D01*
X014833Y006481D01*
X014833Y006679D01*
X014909Y006862D01*
X015049Y007002D01*
X015232Y007077D01*
X015430Y007077D01*
X015613Y007002D01*
X015753Y006862D01*
X015828Y006679D01*
X015828Y006481D01*
X015753Y006298D01*
X015691Y006236D01*
X015691Y005629D01*
X017536Y003784D01*
X017591Y003652D01*
X017591Y002429D01*
X018080Y001940D01*
X020035Y001940D01*
X019918Y002057D01*
X019831Y002267D01*
X019831Y002493D01*
X019918Y002703D01*
X020078Y002863D01*
X020119Y002880D01*
X020078Y002897D01*
X019918Y003057D01*
X019831Y003267D01*
X019831Y003493D01*
X019918Y003703D01*
X020078Y003863D01*
X020119Y003880D01*
X020094Y003890D01*
X017734Y003890D01*
X017553Y003965D01*
X017416Y004102D01*
X016716Y004802D01*
X016641Y004983D01*
X016641Y005936D01*
X016631Y005961D01*
X016631Y006679D01*
X016707Y006863D01*
X016848Y007004D01*
X017032Y007080D01*
X017230Y007080D01*
X017414Y007004D01*
X017555Y006863D01*
X017631Y006679D01*
X017631Y005961D01*
X017707Y005777D01*
X017848Y005636D01*
X018032Y005560D01*
X018230Y005560D01*
X018414Y005636D01*
X018555Y005777D01*
X018631Y005961D01*
X018641Y005936D01*
X018641Y005783D01*
X018716Y005602D01*
X018853Y005465D01*
X019034Y005390D01*
X019228Y005390D01*
X019409Y005465D01*
X019546Y005602D01*
X019834Y005890D01*
X020258Y005890D01*
X020285Y005863D01*
X020510Y005770D01*
X020752Y005770D01*
X020977Y005863D01*
X021148Y006034D01*
X021241Y006259D01*
X021241Y006501D01*
X021148Y006726D01*
X020977Y006897D01*
X020752Y006990D01*
X020510Y006990D01*
X020285Y006897D01*
X020258Y006870D01*
X019548Y006870D01*
X019414Y007004D01*
X019230Y007080D01*
X019032Y007080D01*
X018848Y007004D01*
X018707Y006863D01*
X018631Y006679D01*
X018631Y005961D01*
X018631Y006679D01*
X018555Y006863D01*
X018414Y007004D01*
X018230Y007080D01*
X018032Y007080D01*
X017848Y007004D01*
X017707Y006863D01*
X017631Y006679D01*
X017631Y005961D01*
X017621Y005936D01*
X017621Y005283D01*
X018034Y004870D01*
X020094Y004870D01*
X020288Y004950D01*
X021174Y004950D01*
X021384Y004863D01*
X021411Y004836D01*
X021411Y006183D01*
X021490Y006375D01*
X022906Y007790D01*
X022424Y007790D01*
X021991Y008223D01*
X021991Y008527D01*
X021578Y008940D01*
X021054Y008940D01*
X020977Y008863D01*
X020752Y008770D01*
X020510Y008770D01*
X020285Y008863D01*
X020114Y009034D01*
X020021Y009259D01*
X020021Y009501D01*
X020114Y009726D01*
X020285Y009897D01*
X020410Y009949D01*
X019298Y011060D01*
X013791Y011060D01*
X013812Y011051D01*
X013902Y010961D01*
X014602Y010261D01*
X014651Y010144D01*
X014651Y009964D01*
X014753Y009862D01*
X014828Y009679D01*
X014828Y009481D01*
X014753Y009298D01*
X014613Y009158D01*
X014784Y009373D02*
X014945Y009373D01*
X014896Y009532D02*
X014828Y009532D01*
X014824Y009690D02*
X014907Y009690D01*
X014985Y009849D02*
X014758Y009849D01*
X014651Y010007D02*
X015230Y010007D01*
X014642Y010166D02*
X016631Y010166D01*
X016683Y010324D02*
X014540Y010324D01*
X014381Y010483D02*
X016806Y010483D01*
X017456Y010483D02*
X017913Y010483D01*
X017900Y010476D02*
X017844Y010436D01*
X017795Y010387D01*
X017755Y010331D01*
X017723Y010269D01*
X017702Y010203D01*
X017691Y010135D01*
X017691Y009580D01*
X017691Y009545D01*
X017702Y009477D01*
X017723Y009411D01*
X017755Y009349D01*
X017795Y009293D01*
X017844Y009244D01*
X017900Y009204D01*
X017962Y009172D01*
X018028Y009151D01*
X018096Y009140D01*
X018131Y009140D01*
X018166Y009140D01*
X018234Y009151D01*
X018300Y009172D01*
X018362Y009204D01*
X018418Y009244D01*
X018467Y009293D01*
X018507Y009349D01*
X018539Y009411D01*
X018560Y009477D01*
X018571Y009545D01*
X018571Y009580D01*
X018571Y010135D01*
X018560Y010203D01*
X018539Y010269D01*
X018507Y010331D01*
X018467Y010387D01*
X018418Y010436D01*
X018362Y010476D01*
X018300Y010508D01*
X018234Y010529D01*
X018166Y010540D01*
X018131Y010540D01*
X018131Y009580D01*
X018571Y009580D01*
X018131Y009580D01*
X018131Y009580D01*
X018131Y009140D01*
X018131Y009580D01*
X018131Y009580D01*
X018131Y009580D01*
X018131Y010380D01*
X017431Y011080D01*
X015931Y011080D01*
X014223Y010641D02*
X019717Y010641D01*
X019876Y010483D02*
X019456Y010483D01*
X019579Y010324D02*
X020034Y010324D01*
X020193Y010166D02*
X019631Y010166D01*
X019631Y010007D02*
X020351Y010007D01*
X020237Y009849D02*
X019631Y009849D01*
X019631Y009690D02*
X020099Y009690D01*
X020033Y009532D02*
X019631Y009532D01*
X019586Y009373D02*
X020021Y009373D01*
X020039Y009215D02*
X019491Y009215D01*
X019469Y009056D02*
X020105Y009056D01*
X020251Y008898D02*
X019358Y008898D01*
X019199Y008739D02*
X021779Y008739D01*
X021937Y008581D02*
X019041Y008581D01*
X018882Y008422D02*
X021991Y008422D01*
X021991Y008264D02*
X018724Y008264D01*
X018565Y008105D02*
X022109Y008105D01*
X022268Y007947D02*
X018407Y007947D01*
X018248Y007788D02*
X022904Y007788D01*
X022745Y007630D02*
X012329Y007630D01*
X012371Y007471D02*
X022587Y007471D01*
X022428Y007313D02*
X012371Y007313D01*
X012479Y007154D02*
X022270Y007154D01*
X022111Y006996D02*
X019423Y006996D01*
X018839Y006996D02*
X018423Y006996D01*
X018566Y006837D02*
X018696Y006837D01*
X018631Y006679D02*
X018631Y006679D01*
X018631Y006520D02*
X018631Y006520D01*
X018631Y006362D02*
X018631Y006362D01*
X018631Y006203D02*
X018631Y006203D01*
X018631Y006045D02*
X018631Y006045D01*
X018641Y005886D02*
X018600Y005886D01*
X018664Y005728D02*
X018506Y005728D01*
X018749Y005569D02*
X018252Y005569D01*
X018010Y005569D02*
X017621Y005569D01*
X017621Y005411D02*
X018984Y005411D01*
X019278Y005411D02*
X021411Y005411D01*
X021411Y005569D02*
X019513Y005569D01*
X019671Y005728D02*
X021411Y005728D01*
X021411Y005886D02*
X021000Y005886D01*
X021152Y006045D02*
X021411Y006045D01*
X021419Y006203D02*
X021218Y006203D01*
X021241Y006362D02*
X021485Y006362D01*
X021636Y006520D02*
X021233Y006520D01*
X021168Y006679D02*
X021794Y006679D01*
X021953Y006837D02*
X021037Y006837D01*
X020262Y005886D02*
X019830Y005886D01*
X021411Y005252D02*
X017652Y005252D01*
X017810Y005094D02*
X021411Y005094D01*
X021411Y004935D02*
X021211Y004935D01*
X020251Y004935D02*
X017969Y004935D01*
X017058Y004460D02*
X016861Y004460D01*
X016900Y004618D02*
X016702Y004618D01*
X016741Y004777D02*
X016544Y004777D01*
X016661Y004935D02*
X016385Y004935D01*
X016227Y005094D02*
X016641Y005094D01*
X016641Y005252D02*
X016068Y005252D01*
X015910Y005411D02*
X016641Y005411D01*
X016641Y005569D02*
X015751Y005569D01*
X015691Y005728D02*
X016641Y005728D01*
X016641Y005886D02*
X015691Y005886D01*
X015691Y006045D02*
X016631Y006045D01*
X016631Y006203D02*
X015691Y006203D01*
X015779Y006362D02*
X016631Y006362D01*
X016631Y006520D02*
X015828Y006520D01*
X015828Y006679D02*
X016631Y006679D01*
X016696Y006837D02*
X015763Y006837D01*
X015619Y006996D02*
X016839Y006996D01*
X017423Y006996D02*
X017839Y006996D01*
X017696Y006837D02*
X017566Y006837D01*
X017631Y006679D02*
X017631Y006679D01*
X017631Y006520D02*
X017631Y006520D01*
X017631Y006362D02*
X017631Y006362D01*
X017631Y006203D02*
X017631Y006203D01*
X017631Y006045D02*
X017631Y006045D01*
X017621Y005886D02*
X017662Y005886D01*
X017621Y005728D02*
X017756Y005728D01*
X015684Y004618D02*
X015266Y004618D01*
X015390Y004460D02*
X015842Y004460D01*
X016001Y004301D02*
X015482Y004301D01*
X015573Y004143D02*
X016159Y004143D01*
X016318Y003984D02*
X015626Y003984D01*
X015668Y003826D02*
X016476Y003826D01*
X016635Y003667D02*
X015711Y003667D01*
X015721Y003509D02*
X016793Y003509D01*
X016871Y003350D02*
X015721Y003350D01*
X015721Y003192D02*
X016871Y003192D01*
X016871Y003033D02*
X015695Y003033D01*
X015652Y002875D02*
X016871Y002875D01*
X016871Y002716D02*
X015610Y002716D01*
X015538Y002558D02*
X016871Y002558D01*
X016871Y002399D02*
X015447Y002399D01*
X015355Y002241D02*
X016871Y002241D01*
X016923Y002082D02*
X015206Y002082D01*
X015047Y001924D02*
X017078Y001924D01*
X017237Y001765D02*
X014814Y001765D01*
X014515Y001607D02*
X017395Y001607D01*
X017554Y001448D02*
X012371Y001448D01*
X012338Y001607D02*
X013147Y001607D01*
X012848Y001765D02*
X012272Y001765D01*
X012171Y001924D02*
X012615Y001924D01*
X012456Y002082D02*
X012171Y002082D01*
X012171Y002241D02*
X012306Y002241D01*
X012215Y002399D02*
X012171Y002399D01*
X011291Y003350D02*
X004751Y003350D01*
X004751Y003509D02*
X005250Y003509D01*
X005091Y003667D02*
X004751Y003667D01*
X004751Y003826D02*
X004933Y003826D01*
X004774Y003984D02*
X004751Y003984D01*
X005031Y004180D02*
X005431Y003780D01*
X007531Y003780D01*
X007931Y004180D01*
X007931Y005280D01*
X009031Y006380D01*
X008318Y006120D02*
X007660Y005461D01*
X007611Y005344D01*
X007611Y004313D01*
X007398Y004100D01*
X007312Y004100D01*
X007455Y004243D01*
X007551Y004475D01*
X007551Y004725D01*
X007455Y004957D01*
X007278Y005134D01*
X007046Y005230D01*
X006016Y005230D01*
X005784Y005134D01*
X005757Y005107D01*
X005651Y005213D01*
X005651Y006159D01*
X005784Y006026D01*
X006016Y005930D01*
X007046Y005930D01*
X007278Y006026D01*
X007372Y006120D01*
X008318Y006120D01*
X008243Y006045D02*
X007296Y006045D01*
X007926Y005728D02*
X005651Y005728D01*
X005651Y005886D02*
X008084Y005886D01*
X007767Y005569D02*
X005651Y005569D01*
X005651Y005411D02*
X007639Y005411D01*
X007611Y005252D02*
X005651Y005252D01*
X005331Y005080D02*
X005731Y004680D01*
X006451Y004680D01*
X006531Y004600D01*
X005750Y004100D02*
X005607Y004243D01*
X005530Y004428D01*
X005460Y004499D01*
X005351Y004607D01*
X005351Y004313D01*
X005564Y004100D01*
X005750Y004100D01*
X005708Y004143D02*
X005521Y004143D01*
X005583Y004301D02*
X005363Y004301D01*
X005351Y004460D02*
X005499Y004460D01*
X005031Y004180D02*
X005031Y008580D01*
X007231Y010780D01*
X013631Y010780D01*
X014331Y010080D01*
X014331Y009580D01*
X013878Y009373D02*
X013041Y009373D01*
X013028Y009532D02*
X013833Y009532D01*
X013838Y009690D02*
X012963Y009690D01*
X012825Y009849D02*
X013904Y009849D01*
X013951Y010007D02*
X006911Y010007D01*
X007069Y010166D02*
X013793Y010166D01*
X013634Y010324D02*
X007228Y010324D01*
X006639Y010641D02*
X006545Y010641D01*
X006481Y010483D02*
X006386Y010483D01*
X006322Y010324D02*
X006228Y010324D01*
X006164Y010166D02*
X006069Y010166D01*
X006005Y010007D02*
X005911Y010007D01*
X005847Y009849D02*
X005752Y009849D01*
X005688Y009690D02*
X005594Y009690D01*
X005530Y009532D02*
X005435Y009532D01*
X005371Y009373D02*
X005277Y009373D01*
X005213Y009215D02*
X005118Y009215D01*
X005054Y009056D02*
X004960Y009056D01*
X004896Y008898D02*
X004801Y008898D01*
X004850Y008851D02*
X004760Y008761D01*
X004751Y008740D01*
X004751Y008847D01*
X006964Y011060D01*
X007071Y011060D01*
X007050Y011051D01*
X004850Y008851D01*
X004431Y008980D02*
X006831Y011380D01*
X019431Y011380D01*
X020731Y010080D01*
X020731Y009480D01*
X020631Y009380D01*
X021054Y009820D02*
X021051Y009823D01*
X021051Y010144D01*
X021002Y010261D01*
X020912Y010351D01*
X019867Y011396D01*
X026593Y011396D01*
X026521Y011126D01*
X026521Y010834D01*
X026597Y010552D01*
X026743Y010298D01*
X026949Y010092D01*
X027203Y009946D01*
X027485Y009870D01*
X027777Y009870D01*
X028059Y009946D01*
X028071Y009952D01*
X028071Y008675D01*
X026872Y009875D01*
X026726Y010021D01*
X026534Y010100D01*
X024328Y010100D01*
X024136Y010021D01*
X023736Y009621D01*
X023590Y009475D01*
X023511Y009283D01*
X023511Y008395D01*
X023471Y008355D01*
X023471Y008837D01*
X023037Y009270D01*
X022634Y009270D01*
X022109Y009795D01*
X021928Y009870D01*
X021734Y009870D01*
X021613Y009820D01*
X021054Y009820D01*
X021051Y009849D02*
X021682Y009849D01*
X021980Y009849D02*
X023964Y009849D01*
X024123Y010007D02*
X021051Y010007D01*
X021042Y010166D02*
X026876Y010166D01*
X026739Y010007D02*
X027096Y010007D01*
X026898Y009849D02*
X028071Y009849D01*
X028071Y009690D02*
X027056Y009690D01*
X027215Y009532D02*
X028071Y009532D01*
X028071Y009373D02*
X027373Y009373D01*
X027532Y009215D02*
X028071Y009215D01*
X028071Y009056D02*
X027690Y009056D01*
X027849Y008898D02*
X028071Y008898D01*
X028071Y008739D02*
X028007Y008739D01*
X026188Y007788D02*
X024374Y007788D01*
X024326Y007739D02*
X024472Y007885D01*
X024551Y008077D01*
X024551Y008965D01*
X024646Y009060D01*
X024870Y009060D01*
X024707Y008897D01*
X024611Y008665D01*
X024611Y008415D01*
X024707Y008183D01*
X024884Y008006D01*
X025116Y007910D01*
X026066Y007910D01*
X026411Y007565D01*
X026411Y007061D01*
X026378Y007094D01*
X026146Y007190D01*
X025116Y007190D01*
X024898Y007100D01*
X023686Y007100D01*
X024326Y007739D01*
X024326Y007739D01*
X024216Y007630D02*
X026346Y007630D01*
X026411Y007471D02*
X024057Y007471D01*
X023899Y007313D02*
X026411Y007313D01*
X026411Y007154D02*
X026233Y007154D01*
X025029Y007154D02*
X023740Y007154D01*
X024497Y007947D02*
X025028Y007947D01*
X024785Y008105D02*
X024551Y008105D01*
X024551Y008264D02*
X024674Y008264D01*
X024611Y008422D02*
X024551Y008422D01*
X024551Y008581D02*
X024611Y008581D01*
X024641Y008739D02*
X024551Y008739D01*
X024551Y008898D02*
X024708Y008898D01*
X024642Y009056D02*
X024866Y009056D01*
X023806Y009690D02*
X022214Y009690D01*
X022372Y009532D02*
X023647Y009532D01*
X023548Y009373D02*
X022531Y009373D01*
X023093Y009215D02*
X023511Y009215D01*
X023511Y009056D02*
X023251Y009056D01*
X023410Y008898D02*
X023511Y008898D01*
X023511Y008739D02*
X023471Y008739D01*
X023471Y008581D02*
X023511Y008581D01*
X023511Y008422D02*
X023471Y008422D01*
X021620Y008898D02*
X021011Y008898D01*
X018676Y009373D02*
X018519Y009373D01*
X018569Y009532D02*
X018631Y009532D01*
X018631Y009690D02*
X018571Y009690D01*
X018571Y009849D02*
X018631Y009849D01*
X018631Y010007D02*
X018571Y010007D01*
X018566Y010166D02*
X018631Y010166D01*
X018683Y010324D02*
X018511Y010324D01*
X018349Y010483D02*
X018806Y010483D01*
X018131Y010483D02*
X018131Y010483D01*
X018131Y010540D02*
X018096Y010540D01*
X018028Y010529D01*
X017962Y010508D01*
X017900Y010476D01*
X017751Y010324D02*
X017579Y010324D01*
X017631Y010166D02*
X017696Y010166D01*
X017691Y010007D02*
X017631Y010007D01*
X017631Y009849D02*
X017691Y009849D01*
X017691Y009690D02*
X017631Y009690D01*
X017691Y009580D02*
X018131Y009580D01*
X018131Y010540D01*
X018131Y010324D02*
X018131Y010324D01*
X018131Y010166D02*
X018131Y010166D01*
X018131Y010007D02*
X018131Y010007D01*
X018131Y009849D02*
X018131Y009849D01*
X018131Y009690D02*
X018131Y009690D01*
X018131Y009580D02*
X018131Y009580D01*
X017691Y009580D01*
X017693Y009532D02*
X017631Y009532D01*
X017586Y009373D02*
X017743Y009373D01*
X017885Y009215D02*
X017473Y009215D01*
X018131Y009215D02*
X018131Y009215D01*
X018131Y009373D02*
X018131Y009373D01*
X018131Y009532D02*
X018131Y009532D01*
X018376Y009215D02*
X018656Y009215D01*
X018498Y009056D02*
X012957Y009056D01*
X013023Y009215D02*
X013993Y009215D01*
X012811Y008898D02*
X018339Y008898D01*
X018181Y008739D02*
X012443Y008739D01*
X012284Y008581D02*
X018022Y008581D01*
X015043Y006996D02*
X014770Y006996D01*
X014828Y006837D02*
X014899Y006837D01*
X014833Y006679D02*
X014828Y006679D01*
X014828Y006520D02*
X014833Y006520D01*
X014828Y006362D02*
X014883Y006362D01*
X014799Y006203D02*
X014971Y006203D01*
X014971Y006045D02*
X010752Y006045D01*
X010818Y006203D02*
X012191Y006203D01*
X012027Y006362D02*
X010841Y006362D01*
X010833Y006520D02*
X011869Y006520D01*
X011391Y006679D02*
X010768Y006679D01*
X010637Y006837D02*
X011127Y006837D01*
X010989Y006996D02*
X010591Y006996D01*
X010591Y007154D02*
X010924Y007154D01*
X010891Y007313D02*
X010591Y007313D01*
X010591Y007471D02*
X010891Y007471D01*
X010933Y007630D02*
X010591Y007630D01*
X010331Y008480D02*
X009631Y007780D01*
X009631Y005480D01*
X009031Y004880D01*
X008459Y005094D02*
X008251Y005094D01*
X008251Y004935D02*
X008421Y004935D01*
X008421Y004777D02*
X008251Y004777D01*
X008251Y004618D02*
X008479Y004618D01*
X008589Y004460D02*
X008251Y004460D01*
X008251Y004301D02*
X008835Y004301D01*
X009227Y004301D02*
X010035Y004301D01*
X009789Y004460D02*
X009473Y004460D01*
X009583Y004618D02*
X009679Y004618D01*
X009631Y005025D02*
X009632Y005029D01*
X009630Y005027D01*
X009631Y005025D01*
X009951Y005569D02*
X014971Y005569D01*
X014971Y005411D02*
X010544Y005411D01*
X009951Y005728D02*
X014971Y005728D01*
X014971Y005886D02*
X010600Y005886D01*
X011281Y005252D02*
X013515Y005252D01*
X013019Y005094D02*
X011440Y005094D01*
X011598Y004935D02*
X012744Y004935D01*
X012555Y004777D02*
X011757Y004777D01*
X011915Y004618D02*
X012396Y004618D01*
X012272Y004460D02*
X012074Y004460D01*
X012157Y004301D02*
X012180Y004301D01*
X011291Y003984D02*
X008188Y003984D01*
X008112Y003909D02*
X008112Y003909D01*
X008029Y003826D02*
X011291Y003826D01*
X011291Y003667D02*
X007871Y003667D01*
X007712Y003509D02*
X011291Y003509D01*
X011146Y004143D02*
X008251Y004143D01*
X007599Y004301D02*
X007479Y004301D01*
X007441Y004143D02*
X007354Y004143D01*
X007545Y004460D02*
X007611Y004460D01*
X007611Y004618D02*
X007551Y004618D01*
X007530Y004777D02*
X007611Y004777D01*
X007611Y004935D02*
X007464Y004935D01*
X007318Y005094D02*
X007611Y005094D01*
X008356Y005252D02*
X008540Y005252D01*
X008514Y005411D02*
X008718Y005411D01*
X008673Y005569D02*
X009267Y005569D01*
X009311Y005728D02*
X008831Y005728D01*
X008963Y006990D02*
X008938Y007000D01*
X007372Y007000D01*
X007278Y007094D01*
X007046Y007190D01*
X006094Y007190D01*
X006264Y007360D01*
X008495Y007360D01*
X008612Y007409D01*
X008702Y007499D01*
X010013Y008810D01*
X010110Y008770D01*
X010195Y008770D01*
X010150Y008751D01*
X009450Y008051D01*
X009360Y007961D01*
X009311Y007844D01*
X009311Y006924D01*
X009152Y006990D01*
X008963Y006990D01*
X008949Y006996D02*
X009311Y006996D01*
X009311Y007154D02*
X007133Y007154D01*
X006216Y007313D02*
X009311Y007313D01*
X009311Y007471D02*
X008675Y007471D01*
X008833Y007630D02*
X009311Y007630D01*
X009311Y007788D02*
X008992Y007788D01*
X009150Y007947D02*
X009354Y007947D01*
X009309Y008105D02*
X009503Y008105D01*
X009467Y008264D02*
X009662Y008264D01*
X009626Y008422D02*
X009820Y008422D01*
X009784Y008581D02*
X009979Y008581D01*
X009943Y008739D02*
X010137Y008739D01*
X010425Y008800D02*
X010577Y008863D01*
X010654Y008940D01*
X011008Y008940D01*
X011085Y008863D01*
X011237Y008800D01*
X010425Y008800D01*
X010611Y008898D02*
X011051Y008898D01*
X011731Y008480D02*
X010331Y008480D01*
X009068Y008770D02*
X008298Y008000D01*
X007264Y008000D01*
X007278Y008006D01*
X007372Y008100D01*
X008278Y008100D01*
X008440Y008167D01*
X009043Y008770D01*
X009068Y008770D01*
X009037Y008739D02*
X009012Y008739D01*
X008879Y008581D02*
X008854Y008581D01*
X008720Y008422D02*
X008695Y008422D01*
X008562Y008264D02*
X008537Y008264D01*
X008403Y008105D02*
X008291Y008105D01*
X008431Y007680D02*
X006131Y007680D01*
X005331Y006880D01*
X005331Y005080D01*
X005651Y006045D02*
X005766Y006045D01*
X005351Y007353D02*
X005351Y008447D01*
X005511Y008607D01*
X005511Y008415D01*
X005607Y008183D01*
X005784Y008006D01*
X005940Y007941D01*
X005351Y007353D01*
X005351Y007471D02*
X005469Y007471D01*
X005351Y007630D02*
X005628Y007630D01*
X005786Y007788D02*
X005351Y007788D01*
X005351Y007947D02*
X005928Y007947D01*
X005685Y008105D02*
X005351Y008105D01*
X005351Y008264D02*
X005574Y008264D01*
X005511Y008422D02*
X005351Y008422D01*
X005484Y008581D02*
X005511Y008581D01*
X006118Y009215D02*
X008243Y009215D01*
X008402Y009373D02*
X006277Y009373D01*
X006435Y009532D02*
X008433Y009532D01*
X008499Y009690D02*
X006594Y009690D01*
X006752Y009849D02*
X008637Y009849D01*
X009425Y009849D02*
X009837Y009849D01*
X009699Y009690D02*
X009563Y009690D01*
X009628Y009532D02*
X009633Y009532D01*
X010131Y009380D02*
X008431Y007680D01*
X008085Y009056D02*
X007296Y009056D01*
X004902Y009904D02*
X004211Y009213D01*
X004211Y009943D01*
X004485Y009870D01*
X004777Y009870D01*
X004902Y009904D01*
X004847Y009849D02*
X004211Y009849D01*
X004211Y009690D02*
X004688Y009690D01*
X004530Y009532D02*
X004211Y009532D01*
X004211Y009373D02*
X004371Y009373D01*
X004213Y009215D02*
X004211Y009215D01*
X004431Y008980D02*
X004431Y002980D01*
X006231Y001180D01*
X009731Y001180D01*
X008553Y001607D02*
X006257Y001607D01*
X006099Y001765D02*
X008492Y001765D01*
X008481Y001924D02*
X005940Y001924D01*
X005827Y001131D02*
X005741Y001131D01*
X005741Y000973D02*
X005986Y000973D01*
X005709Y000814D02*
X011150Y000814D01*
X011826Y000660D02*
X011971Y000720D01*
X024163Y000720D01*
X024295Y000775D01*
X024396Y000876D01*
X025510Y001990D01*
X026146Y001990D01*
X026378Y002086D01*
X026452Y002160D01*
X026934Y002160D01*
X027126Y002239D01*
X028026Y003139D01*
X028071Y003185D01*
X028071Y002108D01*
X028059Y002114D01*
X027777Y002190D01*
X027485Y002190D01*
X027203Y002114D01*
X026949Y001968D01*
X026743Y001762D01*
X026597Y001508D01*
X026521Y001226D01*
X026521Y000934D01*
X026594Y000660D01*
X011826Y000660D01*
X017621Y002399D02*
X019831Y002399D01*
X019842Y002241D02*
X017780Y002241D01*
X017938Y002082D02*
X019907Y002082D01*
X019858Y002558D02*
X017591Y002558D01*
X017591Y002716D02*
X019931Y002716D01*
X020105Y002875D02*
X017591Y002875D01*
X017591Y003033D02*
X019942Y003033D01*
X019862Y003192D02*
X017591Y003192D01*
X017591Y003350D02*
X019831Y003350D01*
X019837Y003509D02*
X017591Y003509D01*
X017585Y003667D02*
X019903Y003667D01*
X020040Y003826D02*
X017495Y003826D01*
X017534Y003984D02*
X017336Y003984D01*
X017375Y004143D02*
X017178Y004143D01*
X017217Y004301D02*
X017019Y004301D01*
X015525Y004777D02*
X015107Y004777D01*
X014918Y004935D02*
X015367Y004935D01*
X015208Y005094D02*
X014643Y005094D01*
X015050Y005252D02*
X014147Y005252D01*
X010988Y004301D02*
X010427Y004301D01*
X005631Y002875D02*
X004989Y002875D01*
X005148Y002716D02*
X005579Y002716D01*
X011731Y008480D02*
X012431Y009180D01*
X012431Y009380D01*
X012037Y009849D02*
X011825Y009849D01*
X011037Y009849D02*
X010625Y009849D01*
X010231Y009380D02*
X010131Y009380D01*
X006956Y010958D02*
X006862Y010958D01*
X006798Y010800D02*
X006703Y010800D01*
X006115Y011117D02*
X005741Y011117D01*
X005741Y011126D02*
X005669Y011396D01*
X006394Y011396D01*
X005707Y010709D01*
X005741Y010834D01*
X005741Y011126D01*
X005701Y011275D02*
X006273Y011275D01*
X005956Y010958D02*
X005741Y010958D01*
X005732Y010800D02*
X005798Y010800D01*
X013906Y010958D02*
X019400Y010958D01*
X019559Y010800D02*
X014064Y010800D01*
X019989Y011275D02*
X026561Y011275D01*
X026521Y011117D02*
X020147Y011117D01*
X020306Y010958D02*
X026521Y010958D01*
X026530Y010800D02*
X020464Y010800D01*
X020623Y010641D02*
X026573Y010641D01*
X026637Y010483D02*
X020781Y010483D01*
X020940Y010324D02*
X026728Y010324D01*
X026411Y006059D02*
X026411Y005595D01*
X026046Y005230D01*
X025116Y005230D01*
X024884Y005134D01*
X024707Y004957D01*
X024611Y004725D01*
X024611Y004669D01*
X023927Y003985D01*
X023826Y003884D01*
X023771Y003752D01*
X023771Y002029D01*
X023682Y001940D01*
X023087Y001940D01*
X023471Y002323D01*
X023471Y002937D01*
X023251Y003157D01*
X023251Y005565D01*
X023746Y006060D01*
X024850Y006060D01*
X024884Y006026D01*
X025116Y005930D01*
X026146Y005930D01*
X026378Y006026D01*
X026411Y006059D01*
X026411Y006045D02*
X026396Y006045D01*
X026411Y005886D02*
X023572Y005886D01*
X023414Y005728D02*
X026411Y005728D01*
X026385Y005569D02*
X023255Y005569D01*
X023251Y005411D02*
X026226Y005411D01*
X026068Y005252D02*
X023251Y005252D01*
X023251Y005094D02*
X024844Y005094D01*
X024698Y004935D02*
X023251Y004935D01*
X023251Y004777D02*
X024632Y004777D01*
X024560Y004618D02*
X023251Y004618D01*
X023251Y004460D02*
X024401Y004460D01*
X024243Y004301D02*
X023251Y004301D01*
X023251Y004143D02*
X024084Y004143D01*
X023926Y003984D02*
X023251Y003984D01*
X023251Y003826D02*
X023802Y003826D01*
X023771Y003667D02*
X023251Y003667D01*
X023251Y003509D02*
X023771Y003509D01*
X023771Y003350D02*
X023251Y003350D01*
X023251Y003192D02*
X023771Y003192D01*
X023771Y003033D02*
X023374Y003033D01*
X023471Y002875D02*
X023771Y002875D01*
X023771Y002716D02*
X023471Y002716D01*
X023471Y002558D02*
X023771Y002558D01*
X023771Y002399D02*
X023471Y002399D01*
X023388Y002241D02*
X023771Y002241D01*
X023771Y002082D02*
X023229Y002082D01*
X024491Y002082D02*
X024584Y002082D01*
X024491Y001989D02*
X024491Y003531D01*
X024984Y004024D01*
X025116Y003970D01*
X026146Y003970D01*
X026378Y004066D01*
X026555Y004243D01*
X026573Y004287D01*
X027211Y004925D01*
X027211Y003795D01*
X026616Y003200D01*
X026267Y003200D01*
X026146Y003250D01*
X025116Y003250D01*
X024884Y003154D01*
X024707Y002977D01*
X024611Y002745D01*
X024611Y002495D01*
X024707Y002263D01*
X024736Y002234D01*
X024491Y001989D01*
X024491Y002241D02*
X024730Y002241D01*
X024651Y002399D02*
X024491Y002399D01*
X024491Y002558D02*
X024611Y002558D01*
X024611Y002716D02*
X024491Y002716D01*
X024491Y002875D02*
X024664Y002875D01*
X024763Y003033D02*
X024491Y003033D01*
X024491Y003192D02*
X024974Y003192D01*
X024491Y003350D02*
X026766Y003350D01*
X026924Y003509D02*
X024491Y003509D01*
X024627Y003667D02*
X027083Y003667D01*
X027211Y003826D02*
X024786Y003826D01*
X024944Y003984D02*
X025082Y003984D01*
X026180Y003984D02*
X027211Y003984D01*
X027211Y004143D02*
X026454Y004143D01*
X026587Y004301D02*
X027211Y004301D01*
X027211Y004460D02*
X026746Y004460D01*
X026904Y004618D02*
X027211Y004618D01*
X027211Y004777D02*
X027063Y004777D01*
X024866Y006045D02*
X023731Y006045D01*
X021411Y003924D02*
X021411Y003900D01*
X021387Y003900D01*
X021411Y003924D01*
X022211Y003225D02*
X022211Y003157D01*
X021991Y002937D01*
X021991Y002900D01*
X021831Y002900D01*
X021926Y002939D01*
X022211Y003225D01*
X022211Y003192D02*
X022178Y003192D01*
X022087Y003033D02*
X022019Y003033D01*
X024968Y001448D02*
X026581Y001448D01*
X026538Y001290D02*
X024810Y001290D01*
X024651Y001131D02*
X026521Y001131D01*
X026521Y000973D02*
X024493Y000973D01*
X024334Y000814D02*
X026553Y000814D01*
X026653Y001607D02*
X025127Y001607D01*
X025285Y001765D02*
X026746Y001765D01*
X026905Y001924D02*
X025444Y001924D01*
X026368Y002082D02*
X027147Y002082D01*
X027127Y002241D02*
X028071Y002241D01*
X028071Y002399D02*
X027285Y002399D01*
X027444Y002558D02*
X028071Y002558D01*
X028071Y002716D02*
X027602Y002716D01*
X027761Y002875D02*
X028071Y002875D01*
X028071Y003033D02*
X027919Y003033D01*
D19*
X021831Y009380D02*
X020631Y009380D01*
X014331Y006580D02*
X012431Y006580D01*
X011631Y007380D01*
X009031Y006380D02*
X008851Y006560D01*
X006531Y006560D01*
X006531Y008540D02*
X008191Y008540D01*
X009031Y009380D01*
X010231Y009380D02*
X011431Y009380D01*
X011031Y004880D02*
X010231Y004880D01*
X011031Y004880D02*
X011731Y004180D01*
X011731Y001480D01*
X011631Y001380D01*
X009031Y001880D02*
X008291Y002620D01*
X006531Y002620D01*
D20*
X006491Y002580D01*
X011631Y001380D02*
X011931Y001080D01*
X024091Y001080D01*
X025631Y002620D01*
X024131Y001880D02*
X023831Y001580D01*
X017931Y001580D01*
X017231Y002280D01*
X017231Y003580D01*
X015331Y005480D01*
X015331Y006580D01*
X018031Y008080D02*
X019131Y009180D01*
X019131Y009580D01*
X018031Y008080D02*
X010531Y008080D01*
X010231Y007780D01*
X010231Y006380D01*
X024131Y003680D02*
X024131Y001880D01*
X024131Y003680D02*
X025051Y004600D01*
X025631Y004600D01*
D21*
X025651Y004580D01*
X026131Y004580D01*
X026931Y005380D01*
X026931Y007780D01*
X026171Y008540D01*
X025631Y008540D01*
X026431Y009580D02*
X024431Y009580D01*
X024031Y009180D01*
X024031Y008180D01*
X021931Y006080D01*
X021931Y003680D01*
X021631Y003380D01*
X020731Y003380D01*
X020731Y002380D02*
X022481Y002380D01*
X022731Y002630D01*
X022731Y005780D01*
X023531Y006580D01*
X025611Y006580D01*
X025631Y006560D01*
X027731Y008280D02*
X026431Y009580D01*
X027731Y008280D02*
X027731Y003580D01*
X026831Y002680D01*
X025691Y002680D01*
X025631Y002620D01*
D22*
X020731Y004380D02*
X017831Y004380D01*
X017131Y005080D01*
X017131Y006580D01*
X019131Y006580D02*
X019131Y005880D01*
X019631Y006380D01*
X020631Y006380D01*
X022681Y008530D02*
X021831Y009380D01*
X022681Y008530D02*
X022731Y008530D01*
M02*
