G75*
G70*
%OFA0B0*%
%FSLAX24Y24*%
%IPPOS*%
%LPD*%
%AMOC8*
5,1,8,0,0,1.08239X$1,22.5*
%
%ADD10C,0.0780*%
%ADD11C,0.0660*%
%ADD12C,0.0520*%
%ADD13C,0.0740*%
%ADD14C,0.1000*%
%ADD15OC8,0.1000*%
%ADD16R,0.0515X0.0515*%
%ADD17C,0.0515*%
%ADD18C,0.0160*%
%ADD19C,0.0400*%
%ADD20C,0.0240*%
%ADD21C,0.0560*%
%ADD22C,0.0500*%
D10*
X006241Y002620D02*
X007021Y002620D01*
X007021Y004600D02*
X006241Y004600D01*
X006241Y006560D02*
X007021Y006560D01*
X007021Y008540D02*
X006241Y008540D01*
X025341Y008540D02*
X026121Y008540D01*
X026121Y006560D02*
X025341Y006560D01*
X025341Y004600D02*
X026121Y004600D01*
X026121Y002620D02*
X025341Y002620D01*
D11*
X021161Y002380D02*
X020501Y002380D01*
X020501Y003380D02*
X021161Y003380D01*
X021161Y004380D02*
X020501Y004380D01*
D12*
X019231Y006060D02*
X019231Y006580D01*
X018231Y006580D02*
X018231Y006060D01*
X017231Y006060D02*
X017231Y006580D01*
X017231Y009580D02*
X017231Y010100D01*
X018231Y010100D02*
X018231Y009580D01*
X019231Y009580D02*
X019231Y010100D01*
D13*
X020731Y009380D03*
X020731Y006380D03*
X012531Y009380D03*
X011531Y009380D03*
X010331Y009380D03*
X009131Y009380D03*
X009131Y006380D03*
X010331Y006380D03*
X010331Y004880D03*
X009131Y004880D03*
X009131Y001880D03*
X010331Y001880D03*
D14*
X011731Y001380D03*
X011731Y007380D03*
D15*
X022831Y008530D03*
X022831Y002630D03*
D16*
X014431Y006580D03*
D17*
X015431Y006580D03*
X015431Y009580D03*
X014431Y009580D03*
D18*
X004311Y002747D02*
X004311Y002117D01*
X004585Y002190D01*
X004869Y002190D01*
X004311Y002747D01*
X004311Y002716D02*
X004342Y002716D01*
X004311Y002558D02*
X004501Y002558D01*
X004659Y002399D02*
X004311Y002399D01*
X004311Y002241D02*
X004818Y002241D01*
X005406Y002558D02*
X005674Y002558D01*
X005672Y002570D02*
X005685Y002487D01*
X005713Y002401D01*
X005753Y002321D01*
X005806Y002249D01*
X005870Y002185D01*
X005942Y002132D01*
X006022Y002092D01*
X006107Y002064D01*
X006196Y002050D01*
X006581Y002050D01*
X006581Y002570D01*
X006681Y002570D01*
X006681Y002670D01*
X007590Y002670D01*
X007577Y002753D01*
X007549Y002839D01*
X007508Y002919D01*
X007456Y002991D01*
X007392Y003055D01*
X007320Y003108D01*
X007240Y003148D01*
X007154Y003176D01*
X007066Y003190D01*
X006681Y003190D01*
X006681Y002670D01*
X006581Y002670D01*
X006581Y003190D01*
X006196Y003190D01*
X006107Y003176D01*
X006022Y003148D01*
X005942Y003108D01*
X005870Y003055D01*
X005806Y002991D01*
X005753Y002919D01*
X005713Y002839D01*
X005685Y002753D01*
X005672Y002670D01*
X006581Y002670D01*
X006581Y002570D01*
X005672Y002570D01*
X005531Y002580D02*
X006591Y002580D01*
X006581Y002558D02*
X006681Y002558D01*
X006681Y002570D02*
X006681Y002050D01*
X007066Y002050D01*
X007154Y002064D01*
X007240Y002092D01*
X007320Y002132D01*
X007392Y002185D01*
X007456Y002249D01*
X007508Y002321D01*
X007549Y002401D01*
X007577Y002487D01*
X007590Y002570D01*
X006681Y002570D01*
X006681Y002716D02*
X006581Y002716D01*
X006581Y002875D02*
X006681Y002875D01*
X006681Y003033D02*
X006581Y003033D01*
X005848Y003033D02*
X004931Y003033D01*
X004851Y003113D02*
X004851Y004020D01*
X004860Y003999D01*
X005350Y003509D01*
X005467Y003460D01*
X007695Y003460D01*
X007812Y003509D01*
X008212Y003909D01*
X008302Y003999D01*
X008351Y004116D01*
X008351Y005147D01*
X008984Y005781D01*
X009010Y005770D01*
X009252Y005770D01*
X009411Y005836D01*
X009411Y005613D01*
X009278Y005479D01*
X009252Y005490D01*
X009010Y005490D01*
X008785Y005397D01*
X008614Y005226D01*
X008521Y005001D01*
X008521Y004759D01*
X008614Y004534D01*
X008785Y004363D01*
X009010Y004270D01*
X009252Y004270D01*
X009477Y004363D01*
X009648Y004534D01*
X009731Y004735D01*
X009814Y004534D01*
X009985Y004363D01*
X010210Y004270D01*
X010452Y004270D01*
X010677Y004363D01*
X010754Y004440D01*
X010949Y004440D01*
X011391Y003998D01*
X011391Y002040D01*
X011312Y002007D01*
X011104Y001799D01*
X010991Y001527D01*
X010991Y001233D01*
X011104Y000961D01*
X011312Y000753D01*
X011535Y000660D01*
X005768Y000660D01*
X005841Y000934D01*
X005841Y001218D01*
X006150Y000909D01*
X006267Y000860D01*
X009895Y000860D01*
X010012Y000909D01*
X010374Y001270D01*
X010452Y001270D01*
X010677Y001363D01*
X010848Y001534D01*
X010941Y001759D01*
X010941Y002001D01*
X010848Y002226D01*
X010677Y002397D01*
X010452Y002490D01*
X010210Y002490D01*
X009985Y002397D01*
X009814Y002226D01*
X009721Y002001D01*
X009721Y001759D01*
X009790Y001592D01*
X009698Y001500D01*
X009529Y001500D01*
X009550Y001522D01*
X009601Y001592D01*
X009641Y001669D01*
X009667Y001751D01*
X009681Y001837D01*
X009681Y001871D01*
X009140Y001871D01*
X009140Y001889D01*
X009122Y001889D01*
X009122Y002430D01*
X009088Y002430D01*
X009002Y002416D01*
X008920Y002390D01*
X008843Y002350D01*
X008773Y002300D01*
X008711Y002238D01*
X008661Y002168D01*
X008621Y002091D01*
X008595Y002009D01*
X008581Y001923D01*
X008581Y001889D01*
X009122Y001889D01*
X009122Y001871D01*
X008581Y001871D01*
X008581Y001837D01*
X008595Y001751D01*
X008621Y001669D01*
X008661Y001592D01*
X008711Y001522D01*
X008733Y001500D01*
X006464Y001500D01*
X004851Y003113D01*
X004851Y003192D02*
X011391Y003192D01*
X011391Y003350D02*
X004851Y003350D01*
X004831Y003280D02*
X005531Y002580D01*
X005565Y002399D02*
X005714Y002399D01*
X005723Y002241D02*
X005814Y002241D01*
X005882Y002082D02*
X006052Y002082D01*
X006040Y001924D02*
X008581Y001924D01*
X008592Y001765D02*
X006199Y001765D01*
X006357Y001607D02*
X008653Y001607D01*
X009140Y001889D02*
X009140Y002430D01*
X009174Y002430D01*
X009260Y002416D01*
X009342Y002390D01*
X009419Y002350D01*
X009489Y002300D01*
X009550Y002238D01*
X009601Y002168D01*
X009641Y002091D01*
X009667Y002009D01*
X009681Y001923D01*
X009681Y001889D01*
X009140Y001889D01*
X009140Y001924D02*
X009122Y001924D01*
X009122Y002082D02*
X009140Y002082D01*
X009140Y002241D02*
X009122Y002241D01*
X009122Y002399D02*
X009140Y002399D01*
X009313Y002399D02*
X009990Y002399D01*
X009829Y002241D02*
X009548Y002241D01*
X009644Y002082D02*
X009754Y002082D01*
X009721Y001924D02*
X009681Y001924D01*
X009670Y001765D02*
X009721Y001765D01*
X009784Y001607D02*
X009609Y001607D01*
X009831Y001180D02*
X010331Y001680D01*
X010331Y001880D01*
X010908Y002082D02*
X011391Y002082D01*
X011391Y002241D02*
X010833Y002241D01*
X010672Y002399D02*
X011391Y002399D01*
X011391Y002558D02*
X007588Y002558D01*
X007583Y002716D02*
X011391Y002716D01*
X011391Y002875D02*
X007531Y002875D01*
X007414Y003033D02*
X011391Y003033D01*
X011391Y003509D02*
X007812Y003509D01*
X007971Y003667D02*
X011391Y003667D01*
X011391Y003826D02*
X008129Y003826D01*
X008212Y003909D02*
X008212Y003909D01*
X008288Y003984D02*
X011391Y003984D01*
X011246Y004143D02*
X008351Y004143D01*
X008351Y004301D02*
X008935Y004301D01*
X008689Y004460D02*
X008351Y004460D01*
X008351Y004618D02*
X008579Y004618D01*
X008521Y004777D02*
X008351Y004777D01*
X008351Y004935D02*
X008521Y004935D01*
X008559Y005094D02*
X008351Y005094D01*
X008456Y005252D02*
X008640Y005252D01*
X008614Y005411D02*
X008818Y005411D01*
X008773Y005569D02*
X009367Y005569D01*
X009411Y005728D02*
X008931Y005728D01*
X008343Y006045D02*
X007396Y006045D01*
X007378Y006026D02*
X007472Y006120D01*
X008418Y006120D01*
X007760Y005461D01*
X007711Y005344D01*
X007711Y004313D01*
X007498Y004100D01*
X007412Y004100D01*
X007555Y004243D01*
X007651Y004475D01*
X007651Y004725D01*
X007555Y004957D01*
X007378Y005134D01*
X007146Y005230D01*
X006116Y005230D01*
X005884Y005134D01*
X005857Y005107D01*
X005751Y005213D01*
X005751Y006159D01*
X005884Y006026D01*
X006116Y005930D01*
X007146Y005930D01*
X007378Y006026D01*
X008026Y005728D02*
X005751Y005728D01*
X005751Y005886D02*
X008184Y005886D01*
X007867Y005569D02*
X005751Y005569D01*
X005751Y005411D02*
X007739Y005411D01*
X007711Y005252D02*
X005751Y005252D01*
X005431Y005080D02*
X005831Y004680D01*
X006551Y004680D01*
X006631Y004600D01*
X005850Y004100D02*
X005664Y004100D01*
X005451Y004313D01*
X005451Y004607D01*
X005560Y004499D01*
X005630Y004428D01*
X005707Y004243D01*
X005850Y004100D01*
X005808Y004143D02*
X005621Y004143D01*
X005683Y004301D02*
X005463Y004301D01*
X005451Y004460D02*
X005599Y004460D01*
X005131Y004180D02*
X005531Y003780D01*
X007631Y003780D01*
X008031Y004180D01*
X008031Y005280D01*
X009131Y006380D01*
X009411Y006924D02*
X009252Y006990D01*
X009063Y006990D01*
X009038Y007000D01*
X007472Y007000D01*
X007378Y007094D01*
X007146Y007190D01*
X006194Y007190D01*
X006364Y007360D01*
X008595Y007360D01*
X008712Y007409D01*
X008802Y007499D01*
X010113Y008810D01*
X010210Y008770D01*
X010295Y008770D01*
X010250Y008751D01*
X009550Y008051D01*
X009460Y007961D01*
X009411Y007844D01*
X009411Y006924D01*
X009411Y006996D02*
X009049Y006996D01*
X009411Y007154D02*
X007233Y007154D01*
X006316Y007313D02*
X009411Y007313D01*
X009411Y007471D02*
X008775Y007471D01*
X008933Y007630D02*
X009411Y007630D01*
X009411Y007788D02*
X009092Y007788D01*
X009250Y007947D02*
X009454Y007947D01*
X009409Y008105D02*
X009603Y008105D01*
X009567Y008264D02*
X009762Y008264D01*
X009726Y008422D02*
X009920Y008422D01*
X009884Y008581D02*
X010079Y008581D01*
X010043Y008739D02*
X010237Y008739D01*
X010525Y008800D02*
X010677Y008863D01*
X010754Y008940D01*
X011108Y008940D01*
X011185Y008863D01*
X011337Y008800D01*
X010525Y008800D01*
X010711Y008898D02*
X011151Y008898D01*
X011831Y008480D02*
X010431Y008480D01*
X009731Y007780D01*
X009731Y005480D01*
X009131Y004880D01*
X009683Y004618D02*
X009779Y004618D01*
X009889Y004460D02*
X009573Y004460D01*
X009327Y004301D02*
X010135Y004301D01*
X010527Y004301D02*
X011088Y004301D01*
X011857Y004777D02*
X012655Y004777D01*
X012770Y004892D02*
X012419Y004540D01*
X012267Y004278D01*
X012204Y004429D01*
X012080Y004553D01*
X011380Y005253D01*
X011218Y005320D01*
X010754Y005320D01*
X010677Y005397D01*
X010452Y005490D01*
X010210Y005490D01*
X010051Y005424D01*
X010051Y005836D01*
X010210Y005770D01*
X010452Y005770D01*
X010677Y005863D01*
X010848Y006034D01*
X010941Y006259D01*
X010941Y006501D01*
X010848Y006726D01*
X010677Y006897D01*
X010651Y006908D01*
X010651Y007747D01*
X010764Y007860D01*
X011164Y007860D01*
X011104Y007799D01*
X010991Y007527D01*
X010991Y007233D01*
X011104Y006961D01*
X011312Y006753D01*
X011584Y006640D01*
X011849Y006640D01*
X012282Y006207D01*
X012443Y006140D01*
X014017Y006140D01*
X014038Y006119D01*
X014126Y006083D01*
X014736Y006083D01*
X014824Y006119D01*
X014892Y006187D01*
X014928Y006275D01*
X014928Y006885D01*
X014892Y006973D01*
X014824Y007041D01*
X014736Y007077D01*
X014126Y007077D01*
X014038Y007041D01*
X014017Y007020D01*
X012713Y007020D01*
X012471Y007262D01*
X012471Y007527D01*
X012358Y007799D01*
X012297Y007860D01*
X018495Y007860D01*
X018612Y007909D01*
X019412Y008709D01*
X019502Y008799D01*
X019551Y008916D01*
X019551Y009193D01*
X019655Y009297D01*
X019731Y009481D01*
X019731Y010199D01*
X019655Y010383D01*
X019514Y010524D01*
X019330Y010600D01*
X019132Y010600D01*
X018948Y010524D01*
X018807Y010383D01*
X018731Y010199D01*
X018731Y009481D01*
X018807Y009297D01*
X018911Y009193D01*
X018911Y009113D01*
X018298Y008500D01*
X012304Y008500D01*
X012574Y008770D01*
X012652Y008770D01*
X012877Y008863D01*
X013048Y009034D01*
X013141Y009259D01*
X013141Y009501D01*
X013048Y009726D01*
X012877Y009897D01*
X012652Y009990D01*
X012410Y009990D01*
X012185Y009897D01*
X012031Y009743D01*
X011877Y009897D01*
X011652Y009990D01*
X011410Y009990D01*
X011185Y009897D01*
X011108Y009820D01*
X010754Y009820D01*
X010677Y009897D01*
X010452Y009990D01*
X010210Y009990D01*
X009985Y009897D01*
X009814Y009726D01*
X009731Y009525D01*
X009648Y009726D01*
X009477Y009897D01*
X009252Y009990D01*
X009010Y009990D01*
X008785Y009897D01*
X008614Y009726D01*
X008521Y009501D01*
X008521Y009392D01*
X008109Y008980D01*
X007472Y008980D01*
X007378Y009074D01*
X007146Y009170D01*
X006174Y009170D01*
X007464Y010460D01*
X013598Y010460D01*
X014103Y009955D01*
X014009Y009862D01*
X013933Y009679D01*
X013933Y009481D01*
X014009Y009298D01*
X014149Y009158D01*
X014332Y009083D01*
X014530Y009083D01*
X014713Y009158D01*
X014853Y009298D01*
X014928Y009481D01*
X014928Y009679D01*
X014853Y009862D01*
X014751Y009964D01*
X014751Y010144D01*
X014702Y010261D01*
X014002Y010961D01*
X013912Y011051D01*
X013891Y011060D01*
X019398Y011060D01*
X020510Y009949D01*
X020385Y009897D01*
X020214Y009726D01*
X020121Y009501D01*
X020121Y009259D01*
X020214Y009034D01*
X020385Y008863D01*
X020610Y008770D01*
X020852Y008770D01*
X021077Y008863D01*
X021154Y008940D01*
X021678Y008940D01*
X022091Y008527D01*
X022091Y008223D01*
X022524Y007790D01*
X023006Y007790D01*
X021590Y006375D01*
X021511Y006183D01*
X021511Y004836D01*
X021484Y004863D01*
X021274Y004950D01*
X020388Y004950D01*
X020194Y004870D01*
X018134Y004870D01*
X017721Y005283D01*
X017721Y005936D01*
X017731Y005961D01*
X017807Y005777D01*
X017948Y005636D01*
X018132Y005560D01*
X018330Y005560D01*
X018514Y005636D01*
X018655Y005777D01*
X018731Y005961D01*
X018741Y005936D01*
X018741Y005783D01*
X018816Y005602D01*
X018953Y005465D01*
X019134Y005390D01*
X019328Y005390D01*
X019509Y005465D01*
X019646Y005602D01*
X019934Y005890D01*
X020358Y005890D01*
X020385Y005863D01*
X020610Y005770D01*
X020852Y005770D01*
X021077Y005863D01*
X021248Y006034D01*
X021341Y006259D01*
X021341Y006501D01*
X021248Y006726D01*
X021077Y006897D01*
X020852Y006990D01*
X020610Y006990D01*
X020385Y006897D01*
X020358Y006870D01*
X019648Y006870D01*
X019514Y007004D01*
X019330Y007080D01*
X019132Y007080D01*
X018948Y007004D01*
X018807Y006863D01*
X018731Y006679D01*
X018731Y005961D01*
X018731Y006679D01*
X018655Y006863D01*
X018514Y007004D01*
X018330Y007080D01*
X018132Y007080D01*
X017948Y007004D01*
X017807Y006863D01*
X017731Y006679D01*
X017731Y005961D01*
X017731Y006679D01*
X017655Y006863D01*
X017514Y007004D01*
X017330Y007080D01*
X017132Y007080D01*
X016948Y007004D01*
X016807Y006863D01*
X016731Y006679D01*
X016731Y005961D01*
X016741Y005936D01*
X016741Y004983D01*
X016816Y004802D01*
X017516Y004102D01*
X017653Y003965D01*
X017834Y003890D01*
X020194Y003890D01*
X020219Y003880D01*
X020178Y003863D01*
X020018Y003703D01*
X019931Y003493D01*
X019931Y003267D01*
X020018Y003057D01*
X020178Y002897D01*
X020219Y002880D01*
X020178Y002863D01*
X020018Y002703D01*
X019931Y002493D01*
X019931Y002267D01*
X020018Y002057D01*
X020135Y001940D01*
X018180Y001940D01*
X017691Y002429D01*
X017691Y003652D01*
X017636Y003784D01*
X015791Y005629D01*
X015791Y006236D01*
X015853Y006298D01*
X015928Y006481D01*
X015928Y006679D01*
X015853Y006862D01*
X015713Y007002D01*
X015530Y007077D01*
X015332Y007077D01*
X015149Y007002D01*
X015009Y006862D01*
X014933Y006679D01*
X014933Y006481D01*
X015009Y006298D01*
X015071Y006236D01*
X015071Y005408D01*
X015126Y005276D01*
X015227Y005175D01*
X016971Y003431D01*
X016971Y002208D01*
X017026Y002076D01*
X017127Y001975D01*
X017662Y001440D01*
X012471Y001440D01*
X012471Y001527D01*
X012358Y001799D01*
X012271Y001887D01*
X012271Y002475D01*
X012419Y002220D01*
X012770Y001868D01*
X013201Y001619D01*
X013682Y001490D01*
X014180Y001490D01*
X014660Y001619D01*
X015091Y001868D01*
X015443Y002220D01*
X015692Y002650D01*
X015821Y003131D01*
X015821Y003629D01*
X015692Y004110D01*
X015443Y004540D01*
X015091Y004892D01*
X014660Y005141D01*
X014180Y005270D01*
X013682Y005270D01*
X013201Y005141D01*
X012770Y004892D01*
X012844Y004935D02*
X011698Y004935D01*
X011540Y005094D02*
X013119Y005094D01*
X013615Y005252D02*
X011381Y005252D01*
X010644Y005411D02*
X015071Y005411D01*
X015071Y005569D02*
X010051Y005569D01*
X010051Y005728D02*
X015071Y005728D01*
X015071Y005886D02*
X010700Y005886D01*
X010852Y006045D02*
X015071Y006045D01*
X015071Y006203D02*
X014899Y006203D01*
X014928Y006362D02*
X014983Y006362D01*
X014933Y006520D02*
X014928Y006520D01*
X014928Y006679D02*
X014933Y006679D01*
X014928Y006837D02*
X014999Y006837D01*
X014870Y006996D02*
X015143Y006996D01*
X015719Y006996D02*
X016939Y006996D01*
X016796Y006837D02*
X015863Y006837D01*
X015928Y006679D02*
X016731Y006679D01*
X016731Y006520D02*
X015928Y006520D01*
X015879Y006362D02*
X016731Y006362D01*
X016731Y006203D02*
X015791Y006203D01*
X015791Y006045D02*
X016731Y006045D01*
X016741Y005886D02*
X015791Y005886D01*
X015791Y005728D02*
X016741Y005728D01*
X016741Y005569D02*
X015851Y005569D01*
X016010Y005411D02*
X016741Y005411D01*
X016741Y005252D02*
X016168Y005252D01*
X016327Y005094D02*
X016741Y005094D01*
X016761Y004935D02*
X016485Y004935D01*
X016644Y004777D02*
X016841Y004777D01*
X016802Y004618D02*
X017000Y004618D01*
X016961Y004460D02*
X017158Y004460D01*
X017119Y004301D02*
X017317Y004301D01*
X017278Y004143D02*
X017475Y004143D01*
X017436Y003984D02*
X017634Y003984D01*
X017595Y003826D02*
X020140Y003826D01*
X020003Y003667D02*
X017685Y003667D01*
X017691Y003509D02*
X019937Y003509D01*
X019931Y003350D02*
X017691Y003350D01*
X017691Y003192D02*
X019962Y003192D01*
X020042Y003033D02*
X017691Y003033D01*
X017691Y002875D02*
X020205Y002875D01*
X020031Y002716D02*
X017691Y002716D01*
X017691Y002558D02*
X019958Y002558D01*
X019931Y002399D02*
X017721Y002399D01*
X017880Y002241D02*
X019942Y002241D01*
X020007Y002082D02*
X018038Y002082D01*
X017337Y001765D02*
X014914Y001765D01*
X015147Y001924D02*
X017178Y001924D01*
X017127Y001975D02*
X017127Y001975D01*
X017023Y002082D02*
X015306Y002082D01*
X015455Y002241D02*
X016971Y002241D01*
X016971Y002399D02*
X015547Y002399D01*
X015638Y002558D02*
X016971Y002558D01*
X016971Y002716D02*
X015710Y002716D01*
X015752Y002875D02*
X016971Y002875D01*
X016971Y003033D02*
X015795Y003033D01*
X015821Y003192D02*
X016971Y003192D01*
X016971Y003350D02*
X015821Y003350D01*
X015821Y003509D02*
X016893Y003509D01*
X016735Y003667D02*
X015811Y003667D01*
X015768Y003826D02*
X016576Y003826D01*
X016418Y003984D02*
X015726Y003984D01*
X015673Y004143D02*
X016259Y004143D01*
X016101Y004301D02*
X015582Y004301D01*
X015490Y004460D02*
X015942Y004460D01*
X015784Y004618D02*
X015366Y004618D01*
X015207Y004777D02*
X015625Y004777D01*
X015467Y004935D02*
X015018Y004935D01*
X014743Y005094D02*
X015308Y005094D01*
X015227Y005175D02*
X015227Y005175D01*
X015150Y005252D02*
X014247Y005252D01*
X012496Y004618D02*
X012015Y004618D01*
X012174Y004460D02*
X012372Y004460D01*
X012280Y004301D02*
X012257Y004301D01*
X009732Y005029D02*
X009731Y005025D01*
X009730Y005027D01*
X009732Y005029D01*
X010918Y006203D02*
X012291Y006203D01*
X012127Y006362D02*
X010941Y006362D01*
X010933Y006520D02*
X011969Y006520D01*
X011491Y006679D02*
X010868Y006679D01*
X010737Y006837D02*
X011227Y006837D01*
X011089Y006996D02*
X010651Y006996D01*
X010651Y007154D02*
X011024Y007154D01*
X010991Y007313D02*
X010651Y007313D01*
X010651Y007471D02*
X010991Y007471D01*
X011033Y007630D02*
X010651Y007630D01*
X010692Y007788D02*
X011099Y007788D01*
X010631Y008180D02*
X018431Y008180D01*
X019231Y008980D01*
X019231Y009580D01*
X018776Y009373D02*
X018619Y009373D01*
X018607Y009349D02*
X018639Y009411D01*
X018660Y009477D01*
X018671Y009545D01*
X018671Y009580D01*
X018671Y010135D01*
X018660Y010203D01*
X018639Y010269D01*
X018607Y010331D01*
X018567Y010387D01*
X018518Y010436D01*
X018462Y010476D01*
X018400Y010508D01*
X018334Y010529D01*
X018266Y010540D01*
X018231Y010540D01*
X018231Y009580D01*
X018671Y009580D01*
X018231Y009580D01*
X018231Y009580D01*
X018231Y009140D01*
X018266Y009140D01*
X018334Y009151D01*
X018400Y009172D01*
X018462Y009204D01*
X018518Y009244D01*
X018567Y009293D01*
X018607Y009349D01*
X018476Y009215D02*
X018889Y009215D01*
X018854Y009056D02*
X013057Y009056D01*
X013123Y009215D02*
X014093Y009215D01*
X013978Y009373D02*
X013141Y009373D01*
X013128Y009532D02*
X013933Y009532D01*
X013938Y009690D02*
X013063Y009690D01*
X012925Y009849D02*
X014004Y009849D01*
X014051Y010007D02*
X007011Y010007D01*
X007169Y010166D02*
X013893Y010166D01*
X013734Y010324D02*
X007328Y010324D01*
X006739Y010641D02*
X006645Y010641D01*
X006581Y010483D02*
X006486Y010483D01*
X006422Y010324D02*
X006328Y010324D01*
X006264Y010166D02*
X006169Y010166D01*
X006105Y010007D02*
X006011Y010007D01*
X005947Y009849D02*
X005852Y009849D01*
X005788Y009690D02*
X005694Y009690D01*
X005630Y009532D02*
X005535Y009532D01*
X005471Y009373D02*
X005377Y009373D01*
X005313Y009215D02*
X005218Y009215D01*
X005154Y009056D02*
X005060Y009056D01*
X004996Y008898D02*
X004901Y008898D01*
X004950Y008851D02*
X004860Y008761D01*
X004851Y008740D01*
X004851Y008847D01*
X007064Y011060D01*
X007171Y011060D01*
X007150Y011051D01*
X004950Y008851D01*
X004831Y008780D02*
X004831Y003280D01*
X004851Y003509D02*
X005350Y003509D01*
X005191Y003667D02*
X004851Y003667D01*
X004851Y003826D02*
X005033Y003826D01*
X004874Y003984D02*
X004851Y003984D01*
X005131Y004180D02*
X005131Y008580D01*
X007331Y010780D01*
X013731Y010780D01*
X014431Y010080D01*
X014431Y009580D01*
X014884Y009373D02*
X015045Y009373D01*
X015057Y009351D02*
X015097Y009295D01*
X015146Y009246D01*
X015202Y009206D01*
X015263Y009175D01*
X015329Y009153D01*
X015397Y009143D01*
X015431Y009143D01*
X015465Y009143D01*
X015533Y009153D01*
X015599Y009175D01*
X015660Y009206D01*
X015716Y009246D01*
X015765Y009295D01*
X015805Y009351D01*
X015836Y009412D01*
X015858Y009478D01*
X015868Y009546D01*
X015868Y009580D01*
X015868Y009614D01*
X015858Y009682D01*
X015836Y009748D01*
X015805Y009809D01*
X015765Y009865D01*
X015716Y009914D01*
X015660Y009954D01*
X015599Y009985D01*
X015533Y010007D01*
X015465Y010017D01*
X015431Y010017D01*
X015431Y009580D01*
X015868Y009580D01*
X015431Y009580D01*
X015431Y009580D01*
X015431Y009580D01*
X015431Y009143D01*
X015431Y009580D01*
X015431Y009580D01*
X015531Y009980D01*
X015531Y010580D01*
X016031Y011080D01*
X007131Y011080D01*
X004831Y008780D01*
X004531Y008980D02*
X006931Y011380D01*
X019531Y011380D01*
X020831Y010080D01*
X020831Y009480D01*
X020731Y009380D01*
X020121Y009373D02*
X019686Y009373D01*
X019731Y009532D02*
X020133Y009532D01*
X020199Y009690D02*
X019731Y009690D01*
X019731Y009849D02*
X020337Y009849D01*
X020451Y010007D02*
X019731Y010007D01*
X019731Y010166D02*
X020293Y010166D01*
X020134Y010324D02*
X019679Y010324D01*
X019556Y010483D02*
X019976Y010483D01*
X019817Y010641D02*
X014323Y010641D01*
X014481Y010483D02*
X016906Y010483D01*
X016948Y010524D02*
X016807Y010383D01*
X016731Y010199D01*
X016731Y009481D01*
X016807Y009297D01*
X016948Y009156D01*
X017132Y009080D01*
X017330Y009080D01*
X017514Y009156D01*
X017655Y009297D01*
X017731Y009481D01*
X017731Y010199D01*
X017655Y010383D01*
X017514Y010524D01*
X017330Y010600D01*
X017132Y010600D01*
X016948Y010524D01*
X016783Y010324D02*
X014640Y010324D01*
X014742Y010166D02*
X016731Y010166D01*
X016731Y010007D02*
X015531Y010007D01*
X015431Y010007D02*
X015431Y010007D01*
X015431Y010017D02*
X015397Y010017D01*
X015329Y010007D01*
X015263Y009985D01*
X015202Y009954D01*
X015146Y009914D01*
X015097Y009865D01*
X015057Y009809D01*
X015026Y009748D01*
X015004Y009682D01*
X014993Y009614D01*
X014993Y009580D01*
X015431Y009580D01*
X015431Y010017D01*
X015330Y010007D02*
X014751Y010007D01*
X014858Y009849D02*
X015085Y009849D01*
X015007Y009690D02*
X014924Y009690D01*
X014993Y009580D02*
X014993Y009546D01*
X015004Y009478D01*
X015026Y009412D01*
X015057Y009351D01*
X015190Y009215D02*
X014769Y009215D01*
X014928Y009532D02*
X014996Y009532D01*
X014993Y009580D02*
X015431Y009580D01*
X015431Y009580D01*
X015431Y009532D02*
X015431Y009532D01*
X015431Y009690D02*
X015431Y009690D01*
X015431Y009849D02*
X015431Y009849D01*
X015777Y009849D02*
X016731Y009849D01*
X016731Y009690D02*
X015855Y009690D01*
X015866Y009532D02*
X016731Y009532D01*
X016776Y009373D02*
X015817Y009373D01*
X015672Y009215D02*
X016889Y009215D01*
X017573Y009215D02*
X017985Y009215D01*
X018000Y009204D02*
X018062Y009172D01*
X018128Y009151D01*
X018196Y009140D01*
X018231Y009140D01*
X018231Y009580D01*
X018231Y009580D01*
X018231Y009580D01*
X018231Y010380D01*
X017531Y011080D01*
X016031Y011080D01*
X017556Y010483D02*
X018013Y010483D01*
X018000Y010476D02*
X017944Y010436D01*
X017895Y010387D01*
X017855Y010331D01*
X017823Y010269D01*
X017802Y010203D01*
X017791Y010135D01*
X017791Y009580D01*
X017791Y009545D01*
X017802Y009477D01*
X017823Y009411D01*
X017855Y009349D01*
X017895Y009293D01*
X017944Y009244D01*
X018000Y009204D01*
X017843Y009373D02*
X017686Y009373D01*
X017731Y009532D02*
X017793Y009532D01*
X017791Y009580D02*
X018231Y009580D01*
X018231Y010540D01*
X018196Y010540D01*
X018128Y010529D01*
X018062Y010508D01*
X018000Y010476D01*
X017851Y010324D02*
X017679Y010324D01*
X017731Y010166D02*
X017796Y010166D01*
X017791Y010007D02*
X017731Y010007D01*
X017731Y009849D02*
X017791Y009849D01*
X017791Y009690D02*
X017731Y009690D01*
X017791Y009580D02*
X018231Y009580D01*
X018231Y009580D01*
X018231Y009532D02*
X018231Y009532D01*
X018231Y009690D02*
X018231Y009690D01*
X018231Y009849D02*
X018231Y009849D01*
X018231Y010007D02*
X018231Y010007D01*
X018231Y010166D02*
X018231Y010166D01*
X018231Y010324D02*
X018231Y010324D01*
X018231Y010483D02*
X018231Y010483D01*
X018449Y010483D02*
X018906Y010483D01*
X018783Y010324D02*
X018611Y010324D01*
X018666Y010166D02*
X018731Y010166D01*
X018731Y010007D02*
X018671Y010007D01*
X018671Y009849D02*
X018731Y009849D01*
X018731Y009690D02*
X018671Y009690D01*
X018669Y009532D02*
X018731Y009532D01*
X018231Y009373D02*
X018231Y009373D01*
X018231Y009215D02*
X018231Y009215D01*
X018696Y008898D02*
X012911Y008898D01*
X012543Y008739D02*
X018537Y008739D01*
X018379Y008581D02*
X012384Y008581D01*
X011831Y008480D02*
X012531Y009180D01*
X012531Y009380D01*
X012137Y009849D02*
X011925Y009849D01*
X011137Y009849D02*
X010725Y009849D01*
X010331Y009380D02*
X010231Y009380D01*
X008531Y007680D01*
X006231Y007680D01*
X005431Y006880D01*
X005431Y005080D01*
X005751Y006045D02*
X005866Y006045D01*
X007418Y005094D02*
X007711Y005094D01*
X007711Y004935D02*
X007564Y004935D01*
X007630Y004777D02*
X007711Y004777D01*
X007711Y004618D02*
X007651Y004618D01*
X007645Y004460D02*
X007711Y004460D01*
X007699Y004301D02*
X007579Y004301D01*
X007541Y004143D02*
X007454Y004143D01*
X005731Y002875D02*
X005089Y002875D01*
X005248Y002716D02*
X005679Y002716D01*
X006581Y002399D02*
X006681Y002399D01*
X006681Y002241D02*
X006581Y002241D01*
X006581Y002082D02*
X006681Y002082D01*
X007210Y002082D02*
X008618Y002082D01*
X008714Y002241D02*
X007448Y002241D01*
X007548Y002399D02*
X008948Y002399D01*
X010762Y001448D02*
X010991Y001448D01*
X010991Y001290D02*
X010499Y001290D01*
X010235Y001131D02*
X011033Y001131D01*
X011099Y000973D02*
X010076Y000973D01*
X009831Y001180D02*
X006331Y001180D01*
X004531Y002980D01*
X004531Y008980D01*
X004311Y009213D02*
X004311Y009943D01*
X004585Y009870D01*
X004877Y009870D01*
X005002Y009904D01*
X004311Y009213D01*
X004311Y009215D02*
X004313Y009215D01*
X004311Y009373D02*
X004471Y009373D01*
X004630Y009532D02*
X004311Y009532D01*
X004311Y009690D02*
X004788Y009690D01*
X004947Y009849D02*
X004311Y009849D01*
X005807Y010709D02*
X005841Y010834D01*
X005841Y011126D01*
X005769Y011396D01*
X006494Y011396D01*
X005807Y010709D01*
X005832Y010800D02*
X005898Y010800D01*
X005841Y010958D02*
X006056Y010958D01*
X006215Y011117D02*
X005841Y011117D01*
X005801Y011275D02*
X006373Y011275D01*
X006962Y010958D02*
X007056Y010958D01*
X006898Y010800D02*
X006803Y010800D01*
X006852Y009849D02*
X008737Y009849D01*
X008599Y009690D02*
X006694Y009690D01*
X006535Y009532D02*
X008533Y009532D01*
X008502Y009373D02*
X006377Y009373D01*
X006218Y009215D02*
X008343Y009215D01*
X008185Y009056D02*
X007396Y009056D01*
X008637Y008264D02*
X008662Y008264D01*
X008540Y008167D02*
X009143Y008770D01*
X009168Y008770D01*
X008398Y008000D01*
X007364Y008000D01*
X007378Y008006D01*
X007472Y008100D01*
X008378Y008100D01*
X008540Y008167D01*
X008503Y008105D02*
X008391Y008105D01*
X008795Y008422D02*
X008820Y008422D01*
X008954Y008581D02*
X008979Y008581D01*
X009112Y008739D02*
X009137Y008739D01*
X009728Y009532D02*
X009733Y009532D01*
X009799Y009690D02*
X009663Y009690D01*
X009525Y009849D02*
X009937Y009849D01*
X010631Y008180D02*
X010331Y007880D01*
X010331Y006380D01*
X012471Y007313D02*
X022528Y007313D01*
X022687Y007471D02*
X012471Y007471D01*
X012429Y007630D02*
X022845Y007630D01*
X023004Y007788D02*
X012363Y007788D01*
X012579Y007154D02*
X022370Y007154D01*
X022211Y006996D02*
X019523Y006996D01*
X018939Y006996D02*
X018523Y006996D01*
X018666Y006837D02*
X018796Y006837D01*
X018731Y006679D02*
X018731Y006679D01*
X018731Y006520D02*
X018731Y006520D01*
X018731Y006362D02*
X018731Y006362D01*
X018731Y006203D02*
X018731Y006203D01*
X018731Y006045D02*
X018731Y006045D01*
X018741Y005886D02*
X018700Y005886D01*
X018764Y005728D02*
X018606Y005728D01*
X018849Y005569D02*
X018352Y005569D01*
X018110Y005569D02*
X017721Y005569D01*
X017721Y005411D02*
X019084Y005411D01*
X019378Y005411D02*
X021511Y005411D01*
X021511Y005569D02*
X019613Y005569D01*
X019771Y005728D02*
X021511Y005728D01*
X021511Y005886D02*
X021100Y005886D01*
X021252Y006045D02*
X021511Y006045D01*
X021519Y006203D02*
X021318Y006203D01*
X021341Y006362D02*
X021585Y006362D01*
X021736Y006520D02*
X021333Y006520D01*
X021268Y006679D02*
X021894Y006679D01*
X022053Y006837D02*
X021137Y006837D01*
X020362Y005886D02*
X019930Y005886D01*
X021511Y005252D02*
X017752Y005252D01*
X017910Y005094D02*
X021511Y005094D01*
X021511Y004935D02*
X021311Y004935D01*
X020351Y004935D02*
X018069Y004935D01*
X017856Y005728D02*
X017721Y005728D01*
X017721Y005886D02*
X017762Y005886D01*
X017731Y006045D02*
X017731Y006045D01*
X017731Y006203D02*
X017731Y006203D01*
X017731Y006362D02*
X017731Y006362D01*
X017731Y006520D02*
X017731Y006520D01*
X017731Y006679D02*
X017731Y006679D01*
X017666Y006837D02*
X017796Y006837D01*
X017939Y006996D02*
X017523Y006996D01*
X018650Y007947D02*
X022368Y007947D01*
X022209Y008105D02*
X018809Y008105D01*
X018967Y008264D02*
X022091Y008264D01*
X022091Y008422D02*
X019126Y008422D01*
X019284Y008581D02*
X022037Y008581D01*
X021879Y008739D02*
X019443Y008739D01*
X019543Y008898D02*
X020351Y008898D01*
X020205Y009056D02*
X019551Y009056D01*
X019573Y009215D02*
X020139Y009215D01*
X021111Y008898D02*
X021720Y008898D01*
X022209Y009795D02*
X022734Y009270D01*
X023137Y009270D01*
X023571Y008837D01*
X023571Y008355D01*
X023611Y008395D01*
X023611Y009283D01*
X023690Y009475D01*
X023836Y009621D01*
X024236Y010021D01*
X024428Y010100D01*
X026634Y010100D01*
X026826Y010021D01*
X026972Y009875D01*
X028171Y008675D01*
X028171Y009952D01*
X028159Y009946D01*
X027877Y009870D01*
X027585Y009870D01*
X027303Y009946D01*
X027049Y010092D01*
X026843Y010298D01*
X026697Y010552D01*
X026621Y010834D01*
X026621Y011126D01*
X026693Y011396D01*
X019967Y011396D01*
X021012Y010351D01*
X021102Y010261D01*
X021151Y010144D01*
X021151Y009823D01*
X021154Y009820D01*
X021713Y009820D01*
X021834Y009870D01*
X022028Y009870D01*
X022209Y009795D01*
X022080Y009849D02*
X024064Y009849D01*
X024223Y010007D02*
X021151Y010007D01*
X021151Y009849D02*
X021782Y009849D01*
X022314Y009690D02*
X023906Y009690D01*
X023747Y009532D02*
X022472Y009532D01*
X022631Y009373D02*
X023648Y009373D01*
X023611Y009215D02*
X023193Y009215D01*
X023351Y009056D02*
X023611Y009056D01*
X023611Y008898D02*
X023510Y008898D01*
X023571Y008739D02*
X023611Y008739D01*
X023611Y008581D02*
X023571Y008581D01*
X023571Y008422D02*
X023611Y008422D01*
X024651Y008422D02*
X024711Y008422D01*
X024711Y008415D02*
X024807Y008183D01*
X024984Y008006D01*
X025216Y007910D01*
X026166Y007910D01*
X026511Y007565D01*
X026511Y007061D01*
X026478Y007094D01*
X026246Y007190D01*
X025216Y007190D01*
X024998Y007100D01*
X023786Y007100D01*
X024426Y007739D01*
X024572Y007885D01*
X024651Y008077D01*
X024651Y008965D01*
X024746Y009060D01*
X024970Y009060D01*
X024807Y008897D01*
X024711Y008665D01*
X024711Y008415D01*
X024651Y008264D02*
X024774Y008264D01*
X024885Y008105D02*
X024651Y008105D01*
X024597Y007947D02*
X025128Y007947D01*
X024474Y007788D02*
X026288Y007788D01*
X026446Y007630D02*
X024316Y007630D01*
X024426Y007739D02*
X024426Y007739D01*
X024157Y007471D02*
X026511Y007471D01*
X026511Y007313D02*
X023999Y007313D01*
X023840Y007154D02*
X025129Y007154D01*
X026333Y007154D02*
X026511Y007154D01*
X026511Y006059D02*
X026511Y005595D01*
X026146Y005230D01*
X025216Y005230D01*
X024984Y005134D01*
X024807Y004957D01*
X024711Y004725D01*
X024711Y004669D01*
X024027Y003985D01*
X023926Y003884D01*
X023871Y003752D01*
X023871Y002029D01*
X023782Y001940D01*
X023187Y001940D01*
X023571Y002323D01*
X023571Y002937D01*
X023351Y003157D01*
X023351Y005565D01*
X023846Y006060D01*
X024950Y006060D01*
X024984Y006026D01*
X025216Y005930D01*
X026246Y005930D01*
X026478Y006026D01*
X026511Y006059D01*
X026511Y006045D02*
X026496Y006045D01*
X026511Y005886D02*
X023672Y005886D01*
X023514Y005728D02*
X026511Y005728D01*
X026485Y005569D02*
X023355Y005569D01*
X023351Y005411D02*
X026326Y005411D01*
X026168Y005252D02*
X023351Y005252D01*
X023351Y005094D02*
X024944Y005094D01*
X024798Y004935D02*
X023351Y004935D01*
X023351Y004777D02*
X024732Y004777D01*
X024660Y004618D02*
X023351Y004618D01*
X023351Y004460D02*
X024501Y004460D01*
X024343Y004301D02*
X023351Y004301D01*
X023351Y004143D02*
X024184Y004143D01*
X024026Y003984D02*
X023351Y003984D01*
X023351Y003826D02*
X023902Y003826D01*
X023871Y003667D02*
X023351Y003667D01*
X023351Y003509D02*
X023871Y003509D01*
X023871Y003350D02*
X023351Y003350D01*
X023351Y003192D02*
X023871Y003192D01*
X023871Y003033D02*
X023474Y003033D01*
X023571Y002875D02*
X023871Y002875D01*
X023871Y002716D02*
X023571Y002716D01*
X023571Y002558D02*
X023871Y002558D01*
X023871Y002399D02*
X023571Y002399D01*
X023488Y002241D02*
X023871Y002241D01*
X023871Y002082D02*
X023329Y002082D01*
X024591Y002082D02*
X024684Y002082D01*
X024591Y001989D02*
X024591Y003531D01*
X025084Y004024D01*
X025216Y003970D01*
X026246Y003970D01*
X026478Y004066D01*
X026655Y004243D01*
X026673Y004287D01*
X027311Y004925D01*
X027311Y003795D01*
X026716Y003200D01*
X026367Y003200D01*
X026246Y003250D01*
X025216Y003250D01*
X024984Y003154D01*
X024807Y002977D01*
X024711Y002745D01*
X024711Y002495D01*
X024807Y002263D01*
X024836Y002234D01*
X024591Y001989D01*
X024591Y002241D02*
X024830Y002241D01*
X024751Y002399D02*
X024591Y002399D01*
X024591Y002558D02*
X024711Y002558D01*
X024711Y002716D02*
X024591Y002716D01*
X024591Y002875D02*
X024764Y002875D01*
X024863Y003033D02*
X024591Y003033D01*
X024591Y003192D02*
X025074Y003192D01*
X024591Y003350D02*
X026866Y003350D01*
X027024Y003509D02*
X024591Y003509D01*
X024727Y003667D02*
X027183Y003667D01*
X027311Y003826D02*
X024886Y003826D01*
X025044Y003984D02*
X025182Y003984D01*
X026280Y003984D02*
X027311Y003984D01*
X027311Y004143D02*
X026554Y004143D01*
X026687Y004301D02*
X027311Y004301D01*
X027311Y004460D02*
X026846Y004460D01*
X027004Y004618D02*
X027311Y004618D01*
X027311Y004777D02*
X027163Y004777D01*
X024966Y006045D02*
X023831Y006045D01*
X021511Y003924D02*
X021511Y003900D01*
X021487Y003900D01*
X021511Y003924D01*
X022278Y003192D02*
X022311Y003192D01*
X022311Y003225D02*
X022311Y003157D01*
X022091Y002937D01*
X022091Y002900D01*
X021931Y002900D01*
X022026Y002939D01*
X022311Y003225D01*
X022187Y003033D02*
X022119Y003033D01*
X024910Y001290D02*
X026638Y001290D01*
X026621Y001226D02*
X026621Y000934D01*
X026694Y000660D01*
X011926Y000660D01*
X012071Y000720D01*
X024263Y000720D01*
X024395Y000775D01*
X024496Y000876D01*
X025610Y001990D01*
X026246Y001990D01*
X026478Y002086D01*
X026552Y002160D01*
X027034Y002160D01*
X027226Y002239D01*
X028126Y003139D01*
X028171Y003185D01*
X028171Y002108D01*
X028159Y002114D01*
X027877Y002190D01*
X027585Y002190D01*
X027303Y002114D01*
X027049Y001968D01*
X026843Y001762D01*
X026697Y001508D01*
X026621Y001226D01*
X026621Y001131D02*
X024751Y001131D01*
X024593Y000973D02*
X026621Y000973D01*
X026653Y000814D02*
X024434Y000814D01*
X025068Y001448D02*
X026681Y001448D01*
X026753Y001607D02*
X025227Y001607D01*
X025385Y001765D02*
X026846Y001765D01*
X027005Y001924D02*
X025544Y001924D01*
X026468Y002082D02*
X027247Y002082D01*
X027227Y002241D02*
X028171Y002241D01*
X028171Y002399D02*
X027385Y002399D01*
X027544Y002558D02*
X028171Y002558D01*
X028171Y002716D02*
X027702Y002716D01*
X027861Y002875D02*
X028171Y002875D01*
X028171Y003033D02*
X028019Y003033D01*
X024711Y008581D02*
X024651Y008581D01*
X024651Y008739D02*
X024741Y008739D01*
X024808Y008898D02*
X024651Y008898D01*
X024742Y009056D02*
X024966Y009056D01*
X026839Y010007D02*
X027196Y010007D01*
X026998Y009849D02*
X028171Y009849D01*
X028171Y009690D02*
X027156Y009690D01*
X027315Y009532D02*
X028171Y009532D01*
X028171Y009373D02*
X027473Y009373D01*
X027632Y009215D02*
X028171Y009215D01*
X028171Y009056D02*
X027790Y009056D01*
X027949Y008898D02*
X028171Y008898D01*
X028171Y008739D02*
X028107Y008739D01*
X026976Y010166D02*
X021142Y010166D01*
X021040Y010324D02*
X026828Y010324D01*
X026737Y010483D02*
X020881Y010483D01*
X020723Y010641D02*
X026673Y010641D01*
X026630Y010800D02*
X020564Y010800D01*
X020406Y010958D02*
X026621Y010958D01*
X026621Y011117D02*
X020247Y011117D01*
X020089Y011275D02*
X026661Y011275D01*
X019659Y010800D02*
X014164Y010800D01*
X014006Y010958D02*
X019500Y010958D01*
X015431Y009373D02*
X015431Y009373D01*
X015431Y009215D02*
X015431Y009215D01*
X006040Y007941D02*
X005451Y007353D01*
X005451Y008447D01*
X005611Y008607D01*
X005611Y008415D01*
X005707Y008183D01*
X005884Y008006D01*
X006040Y007941D01*
X006028Y007947D02*
X005451Y007947D01*
X005451Y008105D02*
X005785Y008105D01*
X005674Y008264D02*
X005451Y008264D01*
X005451Y008422D02*
X005611Y008422D01*
X005611Y008581D02*
X005584Y008581D01*
X005451Y007788D02*
X005886Y007788D01*
X005728Y007630D02*
X005451Y007630D01*
X005451Y007471D02*
X005569Y007471D01*
X012271Y002399D02*
X012315Y002399D01*
X012271Y002241D02*
X012406Y002241D01*
X012271Y002082D02*
X012556Y002082D01*
X012715Y001924D02*
X012271Y001924D01*
X012372Y001765D02*
X012948Y001765D01*
X013247Y001607D02*
X012438Y001607D01*
X012471Y001448D02*
X017654Y001448D01*
X017495Y001607D02*
X014615Y001607D01*
X011250Y000814D02*
X005809Y000814D01*
X005841Y000973D02*
X006086Y000973D01*
X005927Y001131D02*
X005841Y001131D01*
X010878Y001607D02*
X011024Y001607D01*
X011089Y001765D02*
X010941Y001765D01*
X010941Y001924D02*
X011228Y001924D01*
D19*
X011731Y001380D02*
X011831Y001480D01*
X011831Y004180D01*
X011131Y004880D01*
X010331Y004880D01*
X009131Y006380D02*
X008951Y006560D01*
X006631Y006560D01*
X006631Y008540D02*
X008291Y008540D01*
X009131Y009380D01*
X010331Y009380D02*
X011531Y009380D01*
X011731Y007380D02*
X012531Y006580D01*
X014431Y006580D01*
X020731Y009380D02*
X021931Y009380D01*
X009131Y001880D02*
X008391Y002620D01*
X006631Y002620D01*
D20*
X006591Y002580D01*
X011731Y001380D02*
X012031Y001080D01*
X024191Y001080D01*
X025731Y002620D01*
X024231Y001880D02*
X023931Y001580D01*
X018031Y001580D01*
X017331Y002280D01*
X017331Y003580D01*
X015431Y005480D01*
X015431Y006580D01*
X024231Y003680D02*
X024231Y001880D01*
X024231Y003680D02*
X025151Y004600D01*
X025731Y004600D01*
D21*
X025751Y004580D01*
X026231Y004580D01*
X027031Y005380D01*
X027031Y007780D01*
X026271Y008540D01*
X025731Y008540D01*
X026531Y009580D02*
X024531Y009580D01*
X024131Y009180D01*
X024131Y008180D01*
X022031Y006080D01*
X022031Y003680D01*
X021731Y003380D01*
X020831Y003380D01*
X020831Y002380D02*
X022581Y002380D01*
X022831Y002630D01*
X022831Y005780D01*
X023631Y006580D01*
X025711Y006580D01*
X025731Y006560D01*
X027831Y008280D02*
X026531Y009580D01*
X027831Y008280D02*
X027831Y003580D01*
X026931Y002680D01*
X025791Y002680D01*
X025731Y002620D01*
D22*
X020831Y004380D02*
X017931Y004380D01*
X017231Y005080D01*
X017231Y006580D01*
X019231Y006580D02*
X019231Y005880D01*
X019731Y006380D01*
X020731Y006380D01*
X022781Y008530D02*
X021931Y009380D01*
X022781Y008530D02*
X022831Y008530D01*
M02*
